<?xml version="1.0" encoding="utf-8"?>
<!-- Generator: Adobe Illustrator 23.1.1, SVG Export Plug-In . SVG Version: 6.00 Build 0)  -->
<svg version="1.1" id="Layer_1" xmlns="http://www.w3.org/2000/svg" xmlns:xlink="http://www.w3.org/1999/xlink" x="0px" y="0px"
	 viewBox="0 0 2400 2400" style="enable-background:new 0 0 2400 2400;" xml:space="preserve">
<style type="text/css">
	.st0{fill-rule:evenodd;clip-rule:evenodd;}
	.st1{fill-rule:evenodd;clip-rule:evenodd;fill:#FFFFFF;}
</style>
<circle class="st0" cx="1200" cy="1200" r="1200"/>
<circle class="st1" cx="1200" cy="1200" r="1100"/>
<path class="st0" d="M1200,1460L1200,1460c230,0,450,120,620,330l-80,60c-150-190-340-300-540-300l0,0c-200,0-390,110-540,300
	l-80-60C750,1580,970,1460,1200,1460z"/>
<circle class="st0" cx="850" cy="950" r="100"/>
<circle class="st0" cx="1550" cy="950" r="100"/>
<polygon points="1500,590 1200,750 900,590 990,550 1200,660 1410,550 "/>
</svg>
