<?xml version="1.0" encoding="utf-8"?>
<!-- Generator: Adobe Illustrator 23.1.1, SVG Export Plug-In . SVG Version: 6.00 Build 0)  -->
<svg version="1.1" id="Layer_1" xmlns="http://www.w3.org/2000/svg" xmlns:xlink="http://www.w3.org/1999/xlink" x="0px" y="0px"
	 viewBox="0 0 24 24" style="enable-background:new 0 0 24 24;" xml:space="preserve">
<style type="text/css">
	.st0{fill-rule:evenodd;clip-rule:evenodd;}
	.st1{fill-rule:evenodd;clip-rule:evenodd;fill:#FFFFFF;}
</style>
<circle class="st0" cx="12" cy="12" r="12"/>
<circle class="st1" cx="12" cy="12" r="11"/>
<path class="st0" d="M12,14.6L12,14.6c2.3,0,4.5,1.2,6.2,3.3l-0.8,0.6c-1.5-1.9-3.4-3-5.4-3l0,0c-2,0-3.9,1.1-5.4,3l-0.8-0.6
	C7.5,15.8,9.7,14.6,12,14.6z"/>
<circle class="st0" cx="8.5" cy="9.5" r="1"/>
<circle class="st0" cx="15.5" cy="9.5" r="1"/>
<polygon points="15,5.9 12,7.5 9,5.9 9.9,5.5 12,6.6 14.1,5.5 "/>
</svg>
