<?xml version="1.0" encoding="UTF-8"?>
<!--Generator: Apple Native CoreSVG 123-->
<!DOCTYPE svg
PUBLIC "-//W3C//DTD SVG 1.1//EN"
       "http://www.w3.org/Graphics/SVG/1.1/DTD/svg11.dtd">
<svg version="1.1" xmlns="http://www.w3.org/2000/svg" xmlns:xlink="http://www.w3.org/1999/xlink" width="3300" height="2200">
 <!--glyph: "uni10041F.medium", point size: 100.000000, font version: "Version 15.0d7e11", template writer version: "5"-->
 <g id="Notes">
  <rect height="2200" id="artboard" style="fill:white;opacity:1" width="3300" x="0" y="0"/>
  <line id="" style="fill:none;stroke:black;opacity:1;stroke-width:0.5;" x1="263" x2="3036" y1="292" y2="292"/>
  <text style="stroke:none;fill:black;font-family:-apple-system,&quot;SF Pro Display&quot;,&quot;SF Pro Text&quot;,Helvetica,sans-serif;font-weight:bold;" transform="matrix(1 0 0 1 263 322)">Weight/Scale Variations</text>
  <text style="stroke:none;fill:black;font-family:-apple-system,&quot;SF Pro Display&quot;,&quot;SF Pro Text&quot;,Helvetica,sans-serif;text-anchor:middle;" transform="matrix(1 0 0 1 559.711 322)">Ultralight</text>
  <text style="stroke:none;fill:black;font-family:-apple-system,&quot;SF Pro Display&quot;,&quot;SF Pro Text&quot;,Helvetica,sans-serif;text-anchor:middle;" transform="matrix(1 0 0 1 856.422 322)">Thin</text>
  <text style="stroke:none;fill:black;font-family:-apple-system,&quot;SF Pro Display&quot;,&quot;SF Pro Text&quot;,Helvetica,sans-serif;text-anchor:middle;" transform="matrix(1 0 0 1 1153.13 322)">Light</text>
  <text style="stroke:none;fill:black;font-family:-apple-system,&quot;SF Pro Display&quot;,&quot;SF Pro Text&quot;,Helvetica,sans-serif;text-anchor:middle;" transform="matrix(1 0 0 1 1449.84 322)">Regular</text>
  <text style="stroke:none;fill:black;font-family:-apple-system,&quot;SF Pro Display&quot;,&quot;SF Pro Text&quot;,Helvetica,sans-serif;text-anchor:middle;" transform="matrix(1 0 0 1 1746.56 322)">Medium</text>
  <text style="stroke:none;fill:black;font-family:-apple-system,&quot;SF Pro Display&quot;,&quot;SF Pro Text&quot;,Helvetica,sans-serif;text-anchor:middle;" transform="matrix(1 0 0 1 2043.27 322)">Semibold</text>
  <text style="stroke:none;fill:black;font-family:-apple-system,&quot;SF Pro Display&quot;,&quot;SF Pro Text&quot;,Helvetica,sans-serif;text-anchor:middle;" transform="matrix(1 0 0 1 2339.98 322)">Bold</text>
  <text style="stroke:none;fill:black;font-family:-apple-system,&quot;SF Pro Display&quot;,&quot;SF Pro Text&quot;,Helvetica,sans-serif;text-anchor:middle;" transform="matrix(1 0 0 1 2636.69 322)">Heavy</text>
  <text style="stroke:none;fill:black;font-family:-apple-system,&quot;SF Pro Display&quot;,&quot;SF Pro Text&quot;,Helvetica,sans-serif;text-anchor:middle;" transform="matrix(1 0 0 1 2933.4 322)">Black</text>
  <line id="" style="fill:none;stroke:black;opacity:1;stroke-width:0.5;" x1="263" x2="3036" y1="1903" y2="1903"/>
  <g id="" transform="matrix(1 0 0 1 263 1933)">
   <path d="M 9.24805 0.830078 C 13.5547 0.830078 17.1387 -2.74414 17.1387 -7.05078 C 17.1387 -11.3574 13.5449 -14.9316 9.23828 -14.9316 C 4.94141 -14.9316 1.36719 -11.3574 1.36719 -7.05078 C 1.36719 -2.74414 4.95117 0.830078 9.24805 0.830078 Z M 9.24805 -0.654297 C 5.70312 -0.654297 2.87109 -3.49609 2.87109 -7.05078 C 2.87109 -10.6055 5.69336 -13.4473 9.23828 -13.4473 C 12.793 -13.4473 15.6348 -10.6055 15.6445 -7.05078 C 15.6543 -3.49609 12.8027 -0.654297 9.24805 -0.654297 Z M 9.22852 -3.42773 C 9.69727 -3.42773 9.9707 -3.74023 9.9707 -4.25781 L 9.9707 -6.31836 L 12.1973 -6.31836 C 12.6953 -6.31836 13.0371 -6.57227 13.0371 -7.04102 C 13.0371 -7.51953 12.7148 -7.7832 12.1973 -7.7832 L 9.9707 -7.7832 L 9.9707 -10.0098 C 9.9707 -10.5273 9.69727 -10.8496 9.22852 -10.8496 C 8.75977 -10.8496 8.50586 -10.5078 8.50586 -10.0098 L 8.50586 -7.7832 L 6.29883 -7.7832 C 5.78125 -7.7832 5.44922 -7.51953 5.44922 -7.04102 C 5.44922 -6.57227 5.80078 -6.31836 6.29883 -6.31836 L 8.50586 -6.31836 L 8.50586 -4.25781 C 8.50586 -3.75977 8.75977 -3.42773 9.22852 -3.42773 Z"/>
  </g>
  <g id="" transform="matrix(1 0 0 1 281.506 1933)">
   <path d="M 11.709 2.91016 C 17.1582 2.91016 21.6699 -1.60156 21.6699 -7.05078 C 21.6699 -12.4902 17.1484 -17.0117 11.6992 -17.0117 C 6.25977 -17.0117 1.74805 -12.4902 1.74805 -7.05078 C 1.74805 -1.60156 6.26953 2.91016 11.709 2.91016 Z M 11.709 1.25 C 7.09961 1.25 3.41797 -2.44141 3.41797 -7.05078 C 3.41797 -11.6504 7.08984 -15.3516 11.6992 -15.3516 C 16.3086 -15.3516 20 -11.6504 20.0098 -7.05078 C 20.0195 -2.44141 16.3184 1.25 11.709 1.25 Z M 11.6895 -2.41211 C 12.207 -2.41211 12.5195 -2.77344 12.5195 -3.33984 L 12.5195 -6.23047 L 15.5762 -6.23047 C 16.123 -6.23047 16.5039 -6.51367 16.5039 -7.03125 C 16.5039 -7.55859 16.1426 -7.86133 15.5762 -7.86133 L 12.5195 -7.86133 L 12.5195 -10.9277 C 12.5195 -11.5039 12.207 -11.8555 11.6895 -11.8555 C 11.1719 -11.8555 10.8789 -11.4844 10.8789 -10.9277 L 10.8789 -7.86133 L 7.83203 -7.86133 C 7.26562 -7.86133 6.89453 -7.55859 6.89453 -7.03125 C 6.89453 -6.51367 7.28516 -6.23047 7.83203 -6.23047 L 10.8789 -6.23047 L 10.8789 -3.33984 C 10.8789 -2.79297 11.1719 -2.41211 11.6895 -2.41211 Z"/>
  </g>
  <g id="" transform="matrix(1 0 0 1 304.924 1933)">
   <path d="M 14.9707 5.67383 C 21.9336 5.67383 27.6953 -0.078125 27.6953 -7.04102 C 27.6953 -14.0039 21.9238 -19.7559 14.9609 -19.7559 C 8.00781 -19.7559 2.25586 -14.0039 2.25586 -7.04102 C 2.25586 -0.078125 8.01758 5.67383 14.9707 5.67383 Z M 14.9707 3.85742 C 8.93555 3.85742 4.08203 -1.00586 4.08203 -7.04102 C 4.08203 -13.0762 8.92578 -17.9395 14.9609 -17.9395 C 21.0059 -17.9395 25.8594 -13.0762 25.8691 -7.04102 C 25.8789 -1.00586 21.0156 3.85742 14.9707 3.85742 Z M 14.9512 -1.06445 C 15.5176 -1.06445 15.8691 -1.45508 15.8691 -2.06055 L 15.8691 -6.13281 L 20.1074 -6.13281 C 20.6934 -6.13281 21.1133 -6.46484 21.1133 -7.02148 C 21.1133 -7.59766 20.7227 -7.93945 20.1074 -7.93945 L 15.8691 -7.93945 L 15.8691 -12.1875 C 15.8691 -12.8027 15.5176 -13.1934 14.9512 -13.1934 C 14.3848 -13.1934 14.0625 -12.7832 14.0625 -12.1875 L 14.0625 -7.93945 L 9.83398 -7.93945 C 9.21875 -7.93945 8.80859 -7.59766 8.80859 -7.02148 C 8.80859 -6.46484 9.23828 -6.13281 9.83398 -6.13281 L 14.0625 -6.13281 L 14.0625 -2.06055 C 14.0625 -1.47461 14.3848 -1.06445 14.9512 -1.06445 Z"/>
  </g>
  <text style="stroke:none;fill:black;font-family:-apple-system,&quot;SF Pro Display&quot;,&quot;SF Pro Text&quot;,Helvetica,sans-serif;font-weight:bold;" transform="matrix(1 0 0 1 263 1953)">Design Variations</text>
  <text style="stroke:none;fill:black;font-family:-apple-system,&quot;SF Pro Display&quot;,&quot;SF Pro Text&quot;,Helvetica,sans-serif;" transform="matrix(1 0 0 1 263 1971)">Symbols are supported in up to nine weights and three scales.</text>
  <text style="stroke:none;fill:black;font-family:-apple-system,&quot;SF Pro Display&quot;,&quot;SF Pro Text&quot;,Helvetica,sans-serif;" transform="matrix(1 0 0 1 263 1989)">For optimal layout with text and other symbols, vertically align</text>
  <text style="stroke:none;fill:black;font-family:-apple-system,&quot;SF Pro Display&quot;,&quot;SF Pro Text&quot;,Helvetica,sans-serif;" transform="matrix(1 0 0 1 263 2007)">symbols with the adjacent text.</text>
  <rect height="14" id="" style="fill:#00AEEF;stroke:none;opacity:0.4;" width="3" x="776" y="1919"/>
  <g id="" transform="matrix(1 0 0 1 779 1933)">
   <path d="M 10.5273 0 L 12.373 0 L 7.17773 -14.0918 L 5.43945 -14.0918 L 0.244141 0 L 2.08984 0 L 3.50586 -4.0332 L 9.11133 -4.0332 Z M 6.2793 -11.9531 L 6.33789 -11.9531 L 8.59375 -5.52734 L 4.02344 -5.52734 Z"/>
  </g>
  <rect height="14" id="" style="fill:#00AEEF;stroke:none;opacity:0.4;" width="3" x="791.617" y="1919"/>
  <text style="stroke:none;fill:black;font-family:-apple-system,&quot;SF Pro Display&quot;,&quot;SF Pro Text&quot;,Helvetica,sans-serif;font-weight:bold;" transform="matrix(1 0 0 1 776 1953)">Margins</text>
  <text style="stroke:none;fill:black;font-family:-apple-system,&quot;SF Pro Display&quot;,&quot;SF Pro Text&quot;,Helvetica,sans-serif;" transform="matrix(1 0 0 1 776 1971)">Leading and trailing margins on the left and right side of each symbol</text>
  <text style="stroke:none;fill:black;font-family:-apple-system,&quot;SF Pro Display&quot;,&quot;SF Pro Text&quot;,Helvetica,sans-serif;" transform="matrix(1 0 0 1 776 1989)">can be adjusted by modifying the width of the blue rectangles.</text>
  <text style="stroke:none;fill:black;font-family:-apple-system,&quot;SF Pro Display&quot;,&quot;SF Pro Text&quot;,Helvetica,sans-serif;" transform="matrix(1 0 0 1 776 2007)">Modifications are automatically applied proportionally to all</text>
  <text style="stroke:none;fill:black;font-family:-apple-system,&quot;SF Pro Display&quot;,&quot;SF Pro Text&quot;,Helvetica,sans-serif;" transform="matrix(1 0 0 1 776 2025)">scales and weights.</text>
  <g id="" transform="matrix(1 0 0 1 1289 1933)">
   <path d="M 2.83203 3.11523 L 4.375 4.6582 C 5.22461 5.48828 6.19141 5.41992 7.06055 4.46289 L 17.2754 -6.66016 C 17.7051 -6.36719 18.0957 -6.37695 18.5645 -6.47461 L 19.6094 -6.68945 L 20.3027 -5.99609 L 20.2539 -5.47852 C 20.1855 -4.95117 20.3516 -4.53125 20.8496 -4.0332 L 21.6602 -3.22266 C 22.168 -2.71484 22.8223 -2.68555 23.3008 -3.16406 L 26.5527 -6.41602 C 27.0312 -6.89453 27.0117 -7.54883 26.5039 -8.05664 L 25.6836 -8.87695 C 25.1855 -9.375 24.7754 -9.55078 24.2383 -9.47266 L 23.7109 -9.41406 L 23.0566 -10.0781 L 23.3398 -11.2207 C 23.4863 -11.7871 23.3398 -12.2559 22.7148 -12.8613 L 20.3027 -15.2539 C 16.7578 -18.7793 12.2266 -18.6719 9.11133 -15.5371 C 8.69141 -15.1074 8.64258 -14.5215 8.91602 -14.0918 C 9.15039 -13.7207 9.62891 -13.4961 10.2734 -13.6621 C 11.7871 -14.043 13.3008 -13.9258 14.7852 -12.9199 L 14.1602 -11.3379 C 13.9258 -10.752 13.9453 -10.2734 14.1797 -9.83398 L 3.01758 0.439453 C 2.08008 1.30859 1.97266 2.25586 2.83203 3.11523 Z M 10.6738 -15.1465 C 13.3398 -17.1387 16.6504 -16.8262 19.0527 -14.4141 L 21.6797 -11.8066 C 21.9141 -11.5723 21.9434 -11.3867 21.8848 -11.0938 L 21.5039 -9.53125 L 23.0762 -7.95898 L 24.043 -8.04688 C 24.3262 -8.07617 24.4141 -8.05664 24.6387 -7.83203 L 25.2637 -7.20703 L 22.5098 -4.46289 L 21.8848 -5.07812 C 21.6602 -5.30273 21.6406 -5.40039 21.6699 -5.68359 L 21.7578 -6.64062 L 20.1953 -8.20312 L 18.5742 -7.89062 C 18.291 -7.83203 18.1445 -7.83203 17.9102 -8.07617 L 15.7324 -10.2539 C 15.5078 -10.4883 15.4785 -10.625 15.6055 -10.9473 L 16.5527 -13.2227 C 14.9512 -14.7559 12.8418 -15.6055 10.8008 -14.9512 C 10.7129 -14.9219 10.6445 -14.9414 10.6152 -14.9805 C 10.5859 -15.0293 10.5859 -15.0781 10.6738 -15.1465 Z M 4.10156 2.41211 C 3.61328 1.91406 3.78906 1.61133 4.12109 1.30859 L 15.0781 -8.80859 L 16.3086 -7.57812 L 6.15234 3.34961 C 5.84961 3.68164 5.46875 3.7793 5.06836 3.37891 Z"/>
  </g>
  <text style="stroke:none;fill:black;font-family:-apple-system,&quot;SF Pro Display&quot;,&quot;SF Pro Text&quot;,Helvetica,sans-serif;font-weight:bold;" transform="matrix(1 0 0 1 1289 1953)">Exporting</text>
  <text style="stroke:none;fill:black;font-family:-apple-system,&quot;SF Pro Display&quot;,&quot;SF Pro Text&quot;,Helvetica,sans-serif;" transform="matrix(1 0 0 1 1289 1971)">Symbols should be outlined when exporting to ensure the</text>
  <text style="stroke:none;fill:black;font-family:-apple-system,&quot;SF Pro Display&quot;,&quot;SF Pro Text&quot;,Helvetica,sans-serif;" transform="matrix(1 0 0 1 1289 1989)">design is preserved when submitting to Xcode.</text>
  <text id="template-version" style="stroke:none;fill:black;font-family:-apple-system,&quot;SF Pro Display&quot;,&quot;SF Pro Text&quot;,Helvetica,sans-serif;text-anchor:end;" transform="matrix(1 0 0 1 3036 1933)">Template v.1.0</text>
  <text style="stroke:none;fill:black;font-family:-apple-system,&quot;SF Pro Display&quot;,&quot;SF Pro Text&quot;,Helvetica,sans-serif;text-anchor:end;" transform="matrix(1 0 0 1 3036 1951)">Generated from square.stack.3d.up.fill</text>
  <text style="stroke:none;fill:black;font-family:-apple-system,&quot;SF Pro Display&quot;,&quot;SF Pro Text&quot;,Helvetica,sans-serif;text-anchor:end;" transform="matrix(1 0 0 1 3036 1969)">Typeset at 100 points</text>
  <text style="stroke:none;fill:black;font-family:-apple-system,&quot;SF Pro Display&quot;,&quot;SF Pro Text&quot;,Helvetica,sans-serif;" transform="matrix(1 0 0 1 263 726)">Small</text>
  <text style="stroke:none;fill:black;font-family:-apple-system,&quot;SF Pro Display&quot;,&quot;SF Pro Text&quot;,Helvetica,sans-serif;" transform="matrix(1 0 0 1 263 1156)">Medium</text>
  <text style="stroke:none;fill:black;font-family:-apple-system,&quot;SF Pro Display&quot;,&quot;SF Pro Text&quot;,Helvetica,sans-serif;" transform="matrix(1 0 0 1 263 1586)">Large</text>
 </g>
 <g id="Guides">
  <g id="H-reference" style="fill:#27AAE1;stroke:none;" transform="matrix(1 0 0 1 339 696)">
   <path d="M 54.9316 0 L 57.666 0 L 30.5664 -70.459 L 28.0762 -70.459 L 0.976562 0 L 3.66211 0 L 12.9395 -24.4629 L 45.7031 -24.4629 Z M 29.1992 -67.0898 L 29.4434 -67.0898 L 44.8242 -26.709 L 13.8184 -26.709 Z"/>
  </g>
  <line id="Baseline-S" style="fill:none;stroke:#27AAE1;opacity:1;stroke-width:0.577;" x1="263" x2="3036" y1="696" y2="696"/>
  <line id="Capline-S" style="fill:none;stroke:#27AAE1;opacity:1;stroke-width:0.577;" x1="263" x2="3036" y1="625.541" y2="625.541"/>
  <g id="H-reference" style="fill:#27AAE1;stroke:none;" transform="matrix(1 0 0 1 339 1126)">
   <path d="M 54.9316 0 L 57.666 0 L 30.5664 -70.459 L 28.0762 -70.459 L 0.976562 0 L 3.66211 0 L 12.9395 -24.4629 L 45.7031 -24.4629 Z M 29.1992 -67.0898 L 29.4434 -67.0898 L 44.8242 -26.709 L 13.8184 -26.709 Z"/>
  </g>
  <line id="Baseline-M" style="fill:none;stroke:#27AAE1;opacity:1;stroke-width:0.577;" x1="263" x2="3036" y1="1126" y2="1126"/>
  <line id="Capline-M" style="fill:none;stroke:#27AAE1;opacity:1;stroke-width:0.577;" x1="263" x2="3036" y1="1055.54" y2="1055.54"/>
  <g id="H-reference" style="fill:#27AAE1;stroke:none;" transform="matrix(1 0 0 1 339 1556)">
   <path d="M 54.9316 0 L 57.666 0 L 30.5664 -70.459 L 28.0762 -70.459 L 0.976562 0 L 3.66211 0 L 12.9395 -24.4629 L 45.7031 -24.4629 Z M 29.1992 -67.0898 L 29.4434 -67.0898 L 44.8242 -26.709 L 13.8184 -26.709 Z"/>
  </g>
  <line id="Baseline-L" style="fill:none;stroke:#27AAE1;opacity:1;stroke-width:0.577;" x1="263" x2="3036" y1="1556" y2="1556"/>
  <line id="Capline-L" style="fill:none;stroke:#27AAE1;opacity:1;stroke-width:0.577;" x1="263" x2="3036" y1="1485.54" y2="1485.54"/>
  <rect height="119.336" id="left-margin" style="fill:#00AEEF;stroke:none;opacity:0.4;" width="12.1582" x="1387.76" y="1030.79"/>
  <rect height="119.336" id="right-margin" style="fill:#00AEEF;stroke:none;opacity:0.4;" width="12.1582" x="1499.77" y="1030.79"/>
 </g>
 <g id="Symbols">
  <g id="Black-L" transform="matrix(1 0 0 1 2850.54 1556)">
   <path d="M 82.8613 -21.1914 C 86.1328 -21.1914 89.209 -22.5586 93.5059 -25 L 141.211 -52.5879 C 147.559 -56.2988 151.074 -60.1074 151.074 -66.0156 C 151.074 -71.9238 147.559 -75.6836 141.211 -79.3945 L 93.5059 -106.982 C 89.209 -109.473 86.1328 -110.791 82.8613 -110.791 C 79.6387 -110.791 76.5137 -109.473 72.2168 -106.982 L 24.5117 -79.3945 C 18.1641 -75.6836 14.6484 -71.9238 14.6484 -66.0156 C 14.6484 -60.1074 18.1641 -56.2988 24.5117 -52.5879 L 72.2168 -25 C 76.5137 -22.5586 79.6387 -21.1914 82.8613 -21.1914 Z M 82.8613 10.5957 C 86.0352 10.5957 88.9648 9.13086 93.1152 6.73828 L 142.383 -22.0703 C 147.803 -25.2441 151.074 -29.0039 151.074 -34.4727 C 151.074 -39.1113 148.633 -42.627 144.922 -45.2637 L 90.3809 -13.3789 C 87.3535 -11.5723 85.1562 -10.5469 82.8613 -10.5469 C 80.5664 -10.5469 78.3691 -11.5723 75.3418 -13.3789 L 20.8008 -45.2637 C 17.0898 -42.627 14.6484 -39.1113 14.6484 -34.4727 C 14.6484 -29.0039 17.9199 -25.1953 23.3398 -22.0703 L 72.6074 6.73828 C 76.7578 9.13086 79.6875 10.5957 82.8613 10.5957 Z M 82.8613 41.1621 C 86.0352 41.1621 88.9648 39.6973 93.1152 37.3047 L 142.383 8.54492 C 147.803 5.37109 151.074 1.5625 151.074 -3.90625 C 151.074 -8.49609 148.633 -12.0605 144.922 -14.6973 L 90.3809 17.1875 C 87.3535 18.9941 85.1562 20.0195 82.8613 20.0195 C 80.5664 20.0195 78.3691 18.9941 75.3418 17.1875 L 20.8008 -14.6973 C 17.0898 -12.0605 14.6484 -8.49609 14.6484 -3.90625 C 14.6484 1.5625 17.9199 5.37109 23.3398 8.54492 L 72.6074 37.3047 C 76.7578 39.6973 79.6875 41.1621 82.8613 41.1621 Z"/>
  </g>
  <g id="Heavy-L" transform="matrix(1 0 0 1 2554.68 1556)">
   <path d="M 81.9824 -22.2656 C 85.0098 -22.2656 87.8906 -23.4863 91.7969 -25.7324 L 140.039 -53.6133 C 145.947 -57.0801 149.072 -60.4492 149.072 -65.7227 C 149.072 -70.9473 145.947 -74.3652 140.039 -77.7832 L 91.7969 -105.713 C 87.8906 -107.959 85.0098 -109.18 81.9824 -109.18 C 79.0039 -109.18 76.123 -107.959 72.2168 -105.713 L 23.9746 -77.7832 C 18.0664 -74.3652 14.9414 -70.9473 14.9414 -65.7227 C 14.9414 -60.4492 18.0664 -57.0801 23.9746 -53.6133 L 72.2168 -25.7324 C 76.123 -23.4863 79.0039 -22.2656 81.9824 -22.2656 Z M 81.9824 9.375 C 84.9121 9.375 87.5488 8.05664 91.3086 5.9082 L 141.699 -23.584 C 146.387 -26.3184 149.072 -29.6387 149.072 -34.2285 C 149.072 -38.2812 146.826 -41.4062 143.701 -43.6035 L 88.2812 -11.3281 C 85.7422 -9.81445 83.9355 -8.93555 81.9824 -8.93555 C 80.0781 -8.93555 78.2715 -9.81445 75.6836 -11.3281 L 20.3125 -43.6035 C 17.1387 -41.4062 14.8926 -38.2812 14.8926 -34.2285 C 14.8926 -29.6387 17.6758 -26.3184 22.3145 -23.584 L 72.7051 5.9082 C 76.4648 8.05664 79.1016 9.375 81.9824 9.375 Z M 81.9824 39.6973 C 84.9121 39.6973 87.5488 38.3789 91.3086 36.1816 L 141.699 6.73828 C 146.338 4.00391 149.072 0.683594 149.072 -3.90625 C 149.072 -7.95898 146.826 -11.084 143.701 -13.2812 L 88.2812 18.9941 C 85.7422 20.5078 83.9355 21.3867 81.9824 21.3867 C 80.0781 21.3867 78.2715 20.5078 75.6836 18.9941 L 20.3125 -13.2812 C 17.1387 -11.084 14.8926 -7.95898 14.8926 -3.90625 C 14.8926 0.683594 17.6758 4.00391 22.3145 6.73828 L 72.7051 36.1816 C 76.4648 38.3789 79.1016 39.6973 81.9824 39.6973 Z"/>
  </g>
  <g id="Bold-L" transform="matrix(1 0 0 1 2258.95 1556)">
   <path d="M 81.0547 -23.4375 C 83.7891 -23.4375 86.4258 -24.5117 89.8926 -26.5137 L 138.721 -54.7852 C 144.141 -57.959 146.826 -60.8887 146.826 -65.3809 C 146.826 -69.9219 144.141 -72.8516 138.721 -75.9766 L 89.8926 -104.248 C 86.4258 -106.299 83.7891 -107.324 81.0547 -107.324 C 78.2715 -107.324 75.6348 -106.299 72.168 -104.248 L 23.3398 -75.9766 C 17.9199 -72.8516 15.2344 -69.9219 15.2344 -65.3809 C 15.2344 -60.8887 17.9199 -57.959 23.3398 -54.7852 L 72.168 -26.5137 C 75.6348 -24.5117 78.2715 -23.4375 81.0547 -23.4375 Z M 81.0547 8.05664 C 83.6426 8.05664 85.9863 6.88477 89.2578 4.93164 L 140.967 -25.3418 C 144.775 -27.5879 146.875 -30.3711 146.875 -33.9844 C 146.875 -37.4023 144.873 -40.0391 142.285 -41.748 L 85.9375 -8.98438 C 83.9844 -7.86133 82.5195 -7.17773 81.0547 -7.17773 C 79.541 -7.17773 78.0762 -7.86133 76.123 -8.98438 L 19.7754 -41.748 C 17.2363 -40.0391 15.2344 -37.4023 15.2344 -33.9844 C 15.2344 -30.3711 17.334 -27.5391 21.1426 -25.3418 L 72.8027 4.93164 C 76.0742 6.88477 78.418 8.05664 81.0547 8.05664 Z M 81.0547 38.0859 C 83.6426 38.0859 85.9863 36.8652 89.2578 34.9609 L 140.967 4.6875 C 144.727 2.49023 146.875 -0.341797 146.875 -3.95508 C 146.875 -7.37305 144.873 -10.0586 142.285 -11.7188 L 85.9375 20.9961 C 83.9844 22.168 82.5195 22.8516 81.0547 22.8516 C 79.541 22.8516 78.0762 22.168 76.123 20.9961 L 19.7754 -11.7188 C 17.2363 -10.0586 15.2344 -7.37305 15.2344 -3.95508 C 15.2344 -0.341797 17.334 2.49023 21.1426 4.6875 L 72.8027 34.9609 C 76.0742 36.8652 78.418 38.0859 81.0547 38.0859 Z"/>
  </g>
  <g id="Semibold-L" transform="matrix(1 0 0 1 1962.9 1556)">
   <path d="M 80.3711 -24.2676 C 82.959 -24.2676 85.4004 -25.1953 88.623 -27.0508 L 137.842 -55.5664 C 142.92 -58.5449 145.264 -61.1328 145.264 -65.1855 C 145.264 -69.1895 142.92 -71.7773 137.842 -74.7559 L 88.623 -103.271 C 85.4004 -105.127 82.959 -106.104 80.3711 -106.104 C 77.7832 -106.104 75.3418 -105.127 72.1191 -103.271 L 22.9004 -74.7559 C 17.8223 -71.7773 15.4785 -69.1895 15.4785 -65.1855 C 15.4785 -61.1328 17.8223 -58.5449 22.9004 -55.5664 L 72.1191 -27.0508 C 75.3418 -25.1953 77.7832 -24.2676 80.3711 -24.2676 Z M 80.3711 7.17773 C 82.8125 7.17773 84.9121 6.05469 87.8906 4.29688 L 140.43 -26.5137 C 143.652 -28.418 145.312 -30.8594 145.312 -33.7891 C 145.312 -36.7676 143.506 -39.1113 141.357 -40.4297 L 84.3262 -7.42188 C 82.7637 -6.49414 81.5918 -5.95703 80.3711 -5.95703 C 79.1504 -5.95703 77.9785 -6.49414 76.416 -7.42188 L 19.3848 -40.4297 C 17.2363 -39.1113 15.4297 -36.7676 15.4297 -33.7891 C 15.4297 -30.8594 17.1387 -28.3691 20.3125 -26.5137 L 72.8516 4.29688 C 75.8301 6.05469 77.9297 7.17773 80.3711 7.17773 Z M 80.3711 36.9629 C 82.8125 36.9629 84.9121 35.8398 87.8906 34.1309 L 140.43 3.32031 C 143.604 1.46484 145.312 -1.07422 145.312 -3.95508 C 145.312 -6.93359 143.506 -9.27734 141.357 -10.6445 L 84.3262 22.4121 C 82.7637 23.291 81.5918 23.877 80.3711 23.877 C 79.1504 23.877 77.9785 23.291 76.416 22.4121 L 19.3848 -10.6445 C 17.2363 -9.27734 15.4297 -6.93359 15.4297 -3.95508 C 15.4297 -1.07422 17.1387 1.46484 20.3125 3.32031 L 72.8516 34.1309 C 75.8301 35.8398 77.9297 36.9629 80.3711 36.9629 Z"/>
  </g>
  <g id="Medium-L" transform="matrix(1 0 0 1 1666.7 1556)">
   <path d="M 79.8828 -24.9023 C 82.3242 -24.9023 84.6191 -25.7324 87.5977 -27.4902 L 137.158 -56.2012 C 141.943 -58.9844 144.092 -61.377 144.092 -64.9902 C 144.092 -68.6523 141.943 -70.9961 137.158 -73.8281 L 87.5977 -102.539 C 84.6191 -104.248 82.3242 -105.127 79.8828 -105.127 C 77.4414 -105.127 75.0977 -104.248 72.1191 -102.539 L 22.6074 -73.8281 C 17.7734 -70.9961 15.625 -68.6523 15.625 -64.9902 C 15.625 -61.377 17.7734 -58.9844 22.6074 -56.2012 L 72.1191 -27.4902 C 75.0977 -25.7324 77.4414 -24.9023 79.8828 -24.9023 Z M 79.8828 6.44531 C 82.1289 6.44531 84.082 5.41992 86.8164 3.80859 L 140.039 -27.4414 C 142.773 -29.0527 144.189 -31.25 144.189 -33.6426 C 144.189 -36.2793 142.432 -38.3789 140.625 -39.4531 L 83.1055 -6.20117 C 81.8359 -5.46875 80.8594 -5.0293 79.8828 -5.0293 C 78.9062 -5.0293 77.8809 -5.46875 76.6113 -6.20117 L 19.1406 -39.4531 C 17.2852 -38.3789 15.5762 -36.2793 15.5762 -33.6426 C 15.5762 -31.25 16.9922 -29.0039 19.6777 -27.4414 L 72.9004 3.80859 C 75.6348 5.41992 77.5879 6.44531 79.8828 6.44531 Z M 79.8828 36.1328 C 82.1289 36.1328 84.082 35.0586 86.8164 33.4473 L 140.039 2.24609 C 142.773 0.634766 144.189 -1.61133 144.189 -4.00391 C 144.189 -6.64062 142.432 -8.74023 140.625 -9.81445 L 83.1055 23.4375 C 81.8359 24.1699 80.8594 24.6582 79.8828 24.6582 C 78.9062 24.6582 77.8809 24.1699 76.6113 23.4375 L 19.1406 -9.81445 C 17.2852 -8.74023 15.5762 -6.64062 15.5762 -4.00391 C 15.5762 -1.61133 16.9922 0.634766 19.6777 2.24609 L 72.9004 33.4473 C 75.6348 35.0586 77.5879 36.1328 79.8828 36.1328 Z"/>
  </g>
  <g id="Regular-L" transform="matrix(1 0 0 1 1370.65 1556)">
   <path d="M 79.1992 -25.6836 C 81.4941 -25.6836 83.5938 -26.4648 86.3281 -28.0273 L 136.23 -56.9824 C 140.723 -59.5703 142.578 -61.6211 142.578 -64.7949 C 142.578 -67.9199 140.723 -69.9707 136.23 -72.6074 L 86.3281 -101.514 C 83.5938 -103.125 81.4941 -103.857 79.1992 -103.857 C 76.9531 -103.857 74.8047 -103.125 72.0703 -101.514 L 22.168 -72.6074 C 17.6758 -69.9707 15.8691 -67.9199 15.8691 -64.7949 C 15.8691 -61.6211 17.6758 -59.5703 22.168 -56.9824 L 72.0703 -28.0273 C 74.8047 -26.4648 76.9531 -25.6836 79.1992 -25.6836 Z M 79.1992 5.56641 C 81.2988 5.56641 83.0078 4.58984 85.4492 3.17383 L 139.551 -28.6133 C 141.699 -29.8828 142.627 -31.7383 142.627 -33.4961 C 142.627 -35.6934 141.113 -37.4512 139.648 -38.1836 L 81.4941 -4.63867 C 80.6152 -4.15039 79.8828 -3.80859 79.1992 -3.80859 C 78.5156 -3.80859 77.7832 -4.15039 76.9043 -4.63867 L 18.75 -38.1836 C 17.334 -37.4512 15.7715 -35.6934 15.7715 -33.4961 C 15.7715 -31.7383 16.7969 -29.834 18.8965 -28.6133 L 72.998 3.17383 C 75.3906 4.58984 77.1484 5.56641 79.1992 5.56641 Z M 79.1992 35.0098 C 81.2988 35.0098 83.0078 34.082 85.4492 32.6172 L 139.551 0.878906 C 141.65 -0.390625 142.627 -2.29492 142.627 -4.00391 C 142.627 -6.25 141.113 -8.00781 139.648 -8.74023 L 81.4941 24.8047 C 80.6152 25.3418 79.8828 25.6836 79.1992 25.6836 C 78.5156 25.6836 77.7832 25.3418 76.9043 24.8047 L 18.75 -8.74023 C 17.334 -8.00781 15.7715 -6.25 15.7715 -4.00391 C 15.7715 -2.29492 16.7969 -0.390625 18.8965 0.878906 L 72.998 32.6172 C 75.3906 34.082 77.1484 35.0098 79.1992 35.0098 Z"/>
  </g>
  <g id="Light-L" transform="matrix(1 0 0 1 1075.15 1556)">
   <path d="M 77.9785 -28.125 C 79.8828 -28.125 81.5918 -28.8086 83.8867 -30.127 L 134.668 -59.5215 C 138.281 -61.6211 139.941 -63.3789 139.941 -66.0645 C 139.941 -68.7988 138.281 -70.5078 134.668 -72.6562 L 83.8867 -102.002 C 81.5918 -103.32 79.8828 -104.004 77.9785 -104.004 C 76.0742 -104.004 74.3652 -103.32 72.0703 -102.002 L 21.2891 -72.6562 C 17.6758 -70.5078 16.0645 -68.7988 16.0645 -66.0645 C 16.0645 -63.3789 17.6758 -61.6211 21.2891 -59.5215 L 72.0703 -30.127 C 74.3652 -28.8086 76.0742 -28.125 77.9785 -28.125 Z M 77.9785 3.41797 C 79.7852 3.41797 81.25 2.63672 83.3496 1.41602 L 137.402 -30.127 C 139.258 -31.25 140.088 -32.7637 140.088 -34.1797 C 140.088 -35.8887 138.965 -37.2559 137.988 -37.793 L 80.127 -4.44336 C 79.2969 -4.00391 78.6621 -3.71094 77.9785 -3.71094 C 77.2949 -3.71094 76.6602 -4.00391 75.8301 -4.44336 L 17.9688 -37.793 C 16.9922 -37.2559 15.8691 -35.8887 15.8691 -34.1797 C 15.8691 -32.7637 16.748 -31.2012 18.5547 -30.127 L 72.6562 1.41602 C 74.707 2.63672 76.2207 3.41797 77.9785 3.41797 Z M 77.9785 33.4961 C 79.7852 33.4961 81.25 32.666 83.3496 31.4453 L 137.402 -0.0976562 C 139.209 -1.17188 140.088 -2.73438 140.088 -4.10156 C 140.088 -5.85938 138.965 -7.17773 137.988 -7.76367 L 80.127 25.5859 C 79.2969 26.0742 78.6621 26.3672 77.9785 26.3672 C 77.2949 26.3672 76.6602 26.0742 75.8301 25.5859 L 17.9688 -7.76367 C 16.9922 -7.17773 15.8691 -5.85938 15.8691 -4.10156 C 15.8691 -2.73438 16.748 -1.17188 18.5547 -0.0976562 L 72.6562 31.4453 C 74.707 32.666 76.2207 33.4961 77.9785 33.4961 Z"/>
  </g>
  <g id="Thin-L" transform="matrix(1 0 0 1 780.055 1556)">
   <path d="M 76.3672 -31.3477 C 77.7832 -31.3477 78.9551 -31.9336 80.6641 -32.9102 L 132.52 -62.8418 C 135.107 -64.3066 136.426 -65.625 136.426 -67.7734 C 136.426 -69.9707 135.107 -71.2402 132.52 -72.7051 L 80.6641 -102.637 C 78.9551 -103.613 77.7832 -104.199 76.3672 -104.199 C 74.9512 -104.199 73.7305 -103.613 72.0703 -102.637 L 20.166 -72.7051 C 17.627 -71.2402 16.2598 -69.9707 16.2598 -67.7734 C 16.2598 -65.625 17.627 -64.3066 20.166 -62.8418 L 72.0703 -32.9102 C 73.7305 -31.9336 74.9512 -31.3477 76.3672 -31.3477 Z M 76.3672 0.634766 C 77.7344 0.634766 78.9062 0 80.5176 -0.927734 L 134.57 -32.1777 C 136.035 -33.0078 136.67 -34.1309 136.67 -35.1074 C 136.67 -36.1816 136.182 -36.9629 135.791 -37.2559 L 78.2715 -4.19922 C 77.5391 -3.80859 77.002 -3.56445 76.3672 -3.56445 C 75.7324 -3.56445 75.1953 -3.80859 74.4629 -4.19922 L 16.9434 -37.2559 C 16.5527 -36.9629 16.0645 -36.1816 16.0645 -35.1074 C 16.0645 -34.1309 16.6504 -33.0078 18.1152 -32.1777 L 72.168 -0.927734 C 73.8281 0 74.9512 0.634766 76.3672 0.634766 Z M 76.3672 31.4453 C 77.7344 31.4453 78.9062 30.8594 80.5176 29.8828 L 134.57 -1.31836 C 136.035 -2.19727 136.67 -3.27148 136.67 -4.24805 C 136.67 -5.32227 136.182 -6.10352 135.791 -6.44531 L 78.2715 26.6113 C 77.5391 27.0508 77.002 27.2949 76.3672 27.2949 C 75.7324 27.2949 75.1953 27.0508 74.4629 26.6113 L 16.9434 -6.44531 C 16.5527 -6.10352 16.0645 -5.32227 16.0645 -4.24805 C 16.0645 -3.27148 16.6504 -2.19727 18.1152 -1.31836 L 72.168 29.8828 C 73.8281 30.8594 74.9512 31.4453 76.3672 31.4453 Z"/>
  </g>
  <g id="Ultralight-L" transform="matrix(1 0 0 1 484.174 1556)">
   <path d="M 75.5371 -33.0078 C 76.709 -33.0078 77.5879 -33.5449 79.0039 -34.3262 L 131.445 -64.5508 C 133.447 -65.6738 134.668 -66.7969 134.668 -68.6523 C 134.668 -70.5566 133.447 -71.6309 131.445 -72.7539 L 79.0039 -102.979 C 77.5879 -103.76 76.709 -104.297 75.5371 -104.297 C 74.3652 -104.297 73.4375 -103.76 72.0703 -102.979 L 19.5801 -72.7539 C 17.627 -71.6309 16.4062 -70.5566 16.4062 -68.6523 C 16.4062 -66.7969 17.627 -65.6738 19.5801 -64.5508 L 72.0703 -34.3262 C 73.4375 -33.5449 74.3652 -33.0078 75.5371 -33.0078 Z M 75.5371 -0.830078 C 76.709 -0.830078 77.6855 -1.31836 79.1016 -2.14844 L 133.154 -33.2031 C 134.424 -33.9355 134.912 -34.8145 134.912 -35.5957 C 134.912 -36.2793 134.766 -36.8164 134.668 -36.9629 L 77.3438 -4.10156 C 76.6113 -3.71094 76.1719 -3.4668 75.5371 -3.4668 C 74.9023 -3.4668 74.4141 -3.71094 73.7305 -4.10156 L 16.4062 -36.9629 C 16.3086 -36.8164 16.1133 -36.2793 16.1133 -35.5957 C 16.1133 -34.8145 16.6504 -33.9355 17.9199 -33.2031 L 71.9727 -2.14844 C 73.3887 -1.31836 74.3164 -0.830078 75.5371 -0.830078 Z M 75.5371 30.4199 C 76.709 30.4199 77.6855 29.8828 79.1016 29.1016 L 133.154 -1.95312 C 134.424 -2.73438 134.912 -3.56445 134.912 -4.3457 C 134.912 -5.07812 134.766 -5.56641 134.668 -5.76172 L 77.3438 27.1484 C 76.6113 27.5391 76.1719 27.7832 75.5371 27.7832 C 74.9023 27.7832 74.4141 27.5391 73.7305 27.1484 L 16.4062 -5.76172 C 16.3086 -5.56641 16.1133 -5.07812 16.1133 -4.3457 C 16.1133 -3.56445 16.6504 -2.73438 17.9199 -1.95312 L 71.9727 29.1016 C 73.3887 29.8828 74.3164 30.4199 75.5371 30.4199 Z"/>
  </g>
  <g id="Black-M" transform="matrix(1 0 0 1 2868.65 1126)">
   <path d="M 64.7461 -24.2188 C 67.3828 -24.2188 69.873 -25.3906 73.4375 -27.4902 L 110.205 -48.6816 C 115.283 -51.6113 118.408 -54.9316 118.408 -60.1562 C 118.408 -65.3809 115.283 -68.7012 110.205 -71.6309 L 73.4375 -92.8223 C 69.873 -94.873 67.3828 -96.0938 64.7461 -96.0938 C 62.1094 -96.0938 59.6191 -94.873 56.0547 -92.8223 L 19.2871 -71.6309 C 14.2578 -68.7012 11.084 -65.3809 11.084 -60.1562 C 11.084 -54.9316 14.2578 -51.6113 19.2871 -48.6816 L 56.0547 -27.4902 C 59.6191 -25.3906 62.1094 -24.2188 64.7461 -24.2188 Z M 64.7461 0.732422 C 67.3828 0.732422 69.873 -0.439453 73.4863 -2.53906 L 110.107 -23.7305 C 115.234 -26.709 118.408 -30.0781 118.408 -35.3027 C 118.408 -39.4043 116.455 -42.4805 113.135 -45.0195 L 72.168 -20.9473 C 69.1406 -19.1895 67.041 -18.1641 64.7461 -18.1641 C 62.4512 -18.1641 60.3516 -19.1895 57.3242 -20.9473 L 16.3574 -45.0195 C 13.0371 -42.4805 11.084 -39.4043 11.084 -35.3027 C 11.084 -30.0781 14.2578 -26.709 19.3848 -23.7305 L 56.0059 -2.53906 C 59.6191 -0.439453 62.1094 0.732422 64.7461 0.732422 Z M 64.7461 25.0977 C 67.3828 25.0977 69.873 23.9258 73.4863 21.8262 L 110.107 0.585938 C 115.234 -2.34375 118.408 -5.71289 118.408 -10.9375 C 118.408 -15.0391 116.455 -18.1152 113.135 -20.6543 L 72.168 3.41797 C 69.1406 5.17578 67.041 6.20117 64.7461 6.20117 C 62.4512 6.20117 60.3516 5.17578 57.3242 3.41797 L 16.3574 -20.6543 C 13.0371 -18.1152 11.084 -15.0391 11.084 -10.9375 C 11.084 -5.71289 14.2578 -2.34375 19.3848 0.585938 L 56.0059 21.8262 C 59.6191 23.9258 62.1094 25.0977 64.7461 25.0977 Z"/>
  </g>
  <g id="Heavy-M" transform="matrix(1 0 0 1 2572.58 1126)">
   <path d="M 64.1113 -24.7559 C 66.6016 -24.7559 68.9453 -25.8301 72.2168 -27.7344 L 109.326 -49.1211 C 114.111 -51.9043 116.895 -54.8828 116.895 -59.5215 C 116.895 -64.1113 114.111 -67.0898 109.326 -69.873 L 72.2168 -91.3086 C 68.9453 -93.2129 66.6016 -94.2383 64.1113 -94.2383 C 61.6699 -94.2383 59.2773 -93.2129 56.0059 -91.3086 L 18.8965 -69.873 C 14.1113 -67.0898 11.3281 -64.1113 11.3281 -59.5215 C 11.3281 -54.8828 14.1113 -51.9043 18.8965 -49.1211 L 56.0059 -27.7344 C 59.2773 -25.8301 61.6699 -24.7559 64.1113 -24.7559 Z M 64.1113 0 C 66.5527 0 68.8477 -1.12305 72.0703 -2.97852 L 109.961 -25.0488 C 114.307 -27.5879 116.895 -30.5176 116.895 -34.8633 C 116.895 -38.4766 115.088 -41.2109 112.207 -43.3105 L 70.2148 -18.75 C 67.7246 -17.2852 66.0156 -16.4551 64.1113 -16.4551 C 62.2559 -16.4551 60.498 -17.2852 58.0078 -18.75 L 16.0156 -43.3105 C 13.1836 -41.2109 11.3281 -38.4766 11.3281 -34.8633 C 11.3281 -30.5176 13.9648 -27.5391 18.3105 -25.0488 L 56.2012 -2.97852 C 59.4238 -1.12305 61.6699 0 64.1113 0 Z M 64.1113 23.9258 C 66.5527 23.9258 68.8477 22.8027 72.0703 20.9473 L 109.961 -1.12305 C 114.258 -3.66211 116.895 -6.5918 116.895 -10.9375 C 116.895 -14.5508 115.088 -17.2852 112.207 -19.3848 L 70.2148 5.17578 C 67.7246 6.64062 66.0156 7.4707 64.1113 7.4707 C 62.2559 7.4707 60.498 6.64062 58.0078 5.17578 L 16.0156 -19.3848 C 13.1836 -17.2852 11.3281 -14.5508 11.3281 -10.9375 C 11.3281 -6.5918 13.9648 -3.66211 18.3105 -1.12305 L 56.2012 20.9473 C 59.4238 22.8027 61.6699 23.9258 64.1113 23.9258 Z"/>
  </g>
  <g id="Bold-M" transform="matrix(1 0 0 1 2276.55 1126)">
   <path d="M 63.4277 -25.3418 C 65.7227 -25.3418 67.9199 -26.2695 70.8984 -27.9785 L 108.35 -49.6582 C 112.842 -52.2949 115.186 -54.834 115.186 -58.7891 C 115.186 -62.7441 112.842 -65.2832 108.35 -67.9199 L 70.8984 -89.5996 C 67.9199 -91.3086 65.7227 -92.2363 63.4277 -92.2363 C 61.1328 -92.2363 58.9355 -91.3086 55.957 -89.5996 L 18.5059 -67.9199 C 13.9648 -65.2832 11.6211 -62.7441 11.6211 -58.7891 C 11.6211 -54.834 13.9648 -52.2949 18.5059 -49.6582 L 55.957 -27.9785 C 58.9355 -26.2695 61.1328 -25.3418 63.4277 -25.3418 Z M 63.4277 -0.830078 C 65.625 -0.830078 67.627 -1.85547 70.459 -3.51562 L 109.717 -26.4648 C 113.232 -28.5156 115.234 -31.0059 115.234 -34.375 C 115.234 -37.4512 113.525 -39.7949 111.182 -41.4062 L 68.0664 -16.3086 C 66.2109 -15.1855 64.8438 -14.5508 63.4277 -14.5508 C 62.0117 -14.5508 60.6445 -15.1855 58.7891 -16.3086 L 15.6738 -41.4062 C 13.3301 -39.7949 11.6211 -37.4512 11.6211 -34.375 C 11.6211 -31.0059 13.623 -28.5156 17.0898 -26.4648 L 56.3965 -3.51562 C 59.2285 -1.85547 61.2305 -0.830078 63.4277 -0.830078 Z M 63.4277 22.6074 C 65.625 22.6074 67.627 21.582 70.459 19.9219 L 109.717 -3.07617 C 113.184 -5.07812 115.234 -7.56836 115.234 -10.9863 C 115.234 -14.0137 113.525 -16.3574 111.182 -17.9688 L 68.0664 7.12891 C 66.2109 8.25195 64.8438 8.88672 63.4277 8.88672 C 62.0117 8.88672 60.6445 8.25195 58.7891 7.12891 L 15.6738 -17.9688 C 13.3301 -16.3574 11.6211 -14.0137 11.6211 -10.9863 C 11.6211 -7.56836 13.623 -5.07812 17.0898 -3.07617 L 56.3965 19.9219 C 59.2285 21.582 61.2305 22.6074 63.4277 22.6074 Z"/>
  </g>
  <g id="Semibold-M" transform="matrix(1 0 0 1 1980.33 1126)">
   <path d="M 62.9395 -25.7324 C 65.1367 -25.7324 67.1875 -26.5625 69.9219 -28.125 L 107.666 -50 C 111.963 -52.5391 114.014 -54.7852 114.014 -58.252 C 114.014 -61.7676 111.963 -64.0137 107.666 -66.5527 L 69.9219 -88.4277 C 67.1875 -89.9902 65.1367 -90.8203 62.9395 -90.8203 C 60.7422 -90.8203 58.6914 -89.9902 55.9082 -88.4277 L 18.2129 -66.5527 C 13.916 -64.0137 11.8652 -61.7676 11.8652 -58.252 C 11.8652 -54.7852 13.916 -52.5391 18.2129 -50 L 55.9082 -28.125 C 58.6914 -26.5625 60.7422 -25.7324 62.9395 -25.7324 Z M 62.9395 -1.41602 C 64.9902 -1.41602 66.7969 -2.34375 69.3359 -3.85742 L 109.619 -27.4902 C 112.5 -29.1992 114.062 -31.3477 114.062 -34.0332 C 114.062 -36.7188 112.451 -38.8184 110.449 -40.0879 L 66.5527 -14.5996 C 65.1367 -13.7695 64.0137 -13.2324 62.9395 -13.2324 C 61.8164 -13.2324 60.7422 -13.7695 59.2773 -14.5996 L 15.4297 -40.0879 C 13.4277 -38.8184 11.8164 -36.7188 11.8164 -34.0332 C 11.8164 -31.3477 13.4277 -29.1504 16.2598 -27.4902 L 56.543 -3.85742 C 59.082 -2.34375 60.8887 -1.41602 62.9395 -1.41602 Z M 62.9395 21.6797 C 64.9902 21.6797 66.7969 20.752 69.3359 19.2383 L 109.619 -4.39453 C 112.451 -6.05469 114.062 -8.25195 114.062 -10.9863 C 114.062 -13.623 112.451 -15.7227 110.449 -16.9922 L 66.5527 8.49609 C 65.1367 9.32617 64.0137 9.86328 62.9395 9.86328 C 61.8164 9.86328 60.7422 9.32617 59.2773 8.49609 L 15.4297 -16.9922 C 13.4277 -15.7227 11.8164 -13.623 11.8164 -10.9863 C 11.8164 -8.25195 13.4277 -6.05469 16.2598 -4.39453 L 56.543 19.2383 C 59.082 20.752 60.8887 21.6797 62.9395 21.6797 Z"/>
  </g>
  <g id="Medium-M" transform="matrix(1 0 0 1 1683.98 1126)">
   <path d="M 62.5488 -26.0254 C 64.6484 -26.0254 66.6504 -26.7578 69.2383 -28.2715 L 107.178 -50.293 C 111.328 -52.6855 113.135 -54.7363 113.135 -57.9102 C 113.135 -61.0352 111.328 -63.0859 107.178 -65.5273 L 69.2383 -87.5 C 66.6504 -89.0137 64.6484 -89.7461 62.5488 -89.7461 C 60.498 -89.7461 58.4961 -89.0137 55.9082 -87.5 L 17.9688 -65.5273 C 13.8184 -63.0859 12.0117 -61.0352 12.0117 -57.9102 C 12.0117 -54.7363 13.8184 -52.6855 17.9688 -50.293 L 55.9082 -28.2715 C 58.4961 -26.7578 60.498 -26.0254 62.5488 -26.0254 Z M 62.5488 -1.85547 C 64.502 -1.85547 66.1621 -2.73438 68.5059 -4.10156 L 109.473 -28.2227 C 111.914 -29.6875 113.184 -31.5918 113.184 -33.7891 C 113.184 -36.1816 111.621 -38.0859 109.912 -39.0625 L 65.4297 -13.3301 C 64.3066 -12.6465 63.4277 -12.2559 62.5488 -12.2559 C 61.7188 -12.2559 60.8398 -12.6465 59.7168 -13.3301 L 15.2344 -39.0625 C 13.5254 -38.0859 11.9629 -36.1816 11.9629 -33.7891 C 11.9629 -31.5918 13.2324 -29.6387 15.625 -28.2227 L 56.6406 -4.10156 C 58.9355 -2.73438 60.6445 -1.85547 62.5488 -1.85547 Z M 62.5488 20.9961 C 64.502 20.9961 66.1621 20.1172 68.5059 18.7012 L 109.473 -5.41992 C 111.865 -6.78711 113.184 -8.78906 113.184 -10.9863 C 113.184 -13.3301 111.621 -15.2344 109.912 -16.2598 L 65.4297 9.52148 C 64.3066 10.1562 63.4277 10.5957 62.5488 10.5957 C 61.7188 10.5957 60.8398 10.1562 59.7168 9.52148 L 15.2344 -16.2598 C 13.5254 -15.2344 11.9629 -13.3301 11.9629 -10.9863 C 11.9629 -8.78906 13.2324 -6.78711 15.625 -5.41992 L 56.6406 18.7012 C 58.9355 20.1172 60.6445 20.9961 62.5488 20.9961 Z"/>
  </g>
  <g id="Regular-M" transform="matrix(1 0 0 1 1387.76 1126)">
   <path d="M 62.1094 -26.4648 C 64.0625 -26.4648 65.9668 -27.0996 68.3105 -28.4668 L 106.494 -50.6348 C 110.449 -52.9297 111.963 -54.7363 111.963 -57.4219 C 111.963 -60.0586 110.449 -61.8652 106.494 -64.1602 L 68.3105 -86.3281 C 65.9668 -87.6953 64.0625 -88.3301 62.1094 -88.3301 C 60.1074 -88.3301 58.252 -87.6953 55.8594 -86.3281 L 17.6758 -64.1602 C 13.7207 -61.8652 12.207 -60.0586 12.207 -57.4219 C 12.207 -54.7363 13.7207 -52.9297 17.6758 -50.6348 L 55.8594 -28.4668 C 58.252 -27.0996 60.1074 -26.4648 62.1094 -26.4648 Z M 62.1094 -2.39258 C 63.8672 -2.39258 65.3809 -3.22266 67.4316 -4.44336 L 109.375 -29.1992 C 111.182 -30.3223 112.012 -31.9336 112.012 -33.4473 C 112.012 -35.4492 110.547 -37.1094 109.18 -37.7441 L 63.9648 -11.6211 C 63.2324 -11.2305 62.6465 -10.9375 62.1094 -10.9375 C 61.5234 -10.9375 60.9375 -11.2305 60.2051 -11.6211 L 14.9902 -37.7441 C 13.623 -37.1094 12.1582 -35.4492 12.1582 -33.4473 C 12.1582 -31.9336 13.0371 -30.2734 14.8438 -29.1992 L 56.7383 -4.44336 C 58.8379 -3.22266 60.3027 -2.39258 62.1094 -2.39258 Z M 62.1094 20.0684 C 63.8672 20.0684 65.3809 19.2383 67.4316 18.0176 L 109.375 -6.73828 C 111.133 -7.76367 112.012 -9.47266 112.012 -10.9863 C 112.012 -12.9883 110.547 -14.5996 109.18 -15.2832 L 63.9648 10.8887 C 63.2324 11.2793 62.6465 11.5723 62.1094 11.5723 C 61.5234 11.5723 60.9375 11.2793 60.2051 10.8887 L 14.9902 -15.2832 C 13.623 -14.5996 12.1582 -12.9883 12.1582 -10.9863 C 12.1582 -9.47266 13.0371 -7.76367 14.8438 -6.73828 L 56.7383 18.0176 C 58.8379 19.2383 60.3027 20.0684 62.1094 20.0684 Z"/>
  </g>
  <g id="Light-M" transform="matrix(1 0 0 1 1092.15 1126)">
   <path d="M 60.9863 -28.6621 C 62.6465 -28.6621 64.1602 -29.1992 66.1133 -30.3223 L 105.078 -52.9297 C 108.252 -54.7852 109.619 -56.25 109.619 -58.5449 C 109.619 -60.8398 108.252 -62.3535 105.078 -64.209 L 66.1133 -86.7676 C 64.1602 -87.8906 62.6465 -88.4766 60.9863 -88.4766 C 59.3262 -88.4766 57.8125 -87.8906 55.8594 -86.7676 L 16.8945 -64.209 C 13.7207 -62.3535 12.3535 -60.8398 12.3535 -58.5449 C 12.3535 -56.25 13.7207 -54.7852 16.8945 -52.9297 L 55.8594 -30.3223 C 57.8125 -29.1992 59.3262 -28.6621 60.9863 -28.6621 Z M 60.9863 -4.29688 C 62.5 -4.29688 63.7695 -5.0293 65.5273 -6.05469 L 107.422 -30.6152 C 109.033 -31.543 109.717 -32.8613 109.717 -34.082 C 109.717 -35.6445 108.643 -36.9141 107.715 -37.4023 L 62.6953 -11.4746 C 62.0605 -11.084 61.5234 -10.8398 60.9863 -10.8398 C 60.4492 -10.8398 59.9121 -11.084 59.2773 -11.4746 L 14.2578 -37.4023 C 13.3301 -36.9141 12.2559 -35.6445 12.2559 -34.082 C 12.2559 -32.8613 12.9883 -31.4941 14.5508 -30.6152 L 56.4453 -6.05469 C 58.2031 -5.0293 59.4727 -4.29688 60.9863 -4.29688 Z M 60.9863 18.7012 C 62.5 18.7012 63.7695 18.0176 65.5273 16.9922 L 107.422 -7.56836 C 108.984 -8.49609 109.717 -9.86328 109.717 -11.084 C 109.717 -12.6465 108.643 -13.8672 107.715 -14.3555 L 62.6953 11.5723 C 62.0605 11.9141 61.5234 12.207 60.9863 12.207 C 60.4492 12.207 59.9121 11.9141 59.2773 11.5723 L 14.2578 -14.3555 C 13.3301 -13.8672 12.2559 -12.6465 12.2559 -11.084 C 12.2559 -9.86328 12.9883 -8.49609 14.5508 -7.56836 L 56.4453 16.9922 C 58.2031 18.0176 59.4727 18.7012 60.9863 18.7012 Z"/>
  </g>
  <g id="Thin-M" transform="matrix(1 0 0 1 796.901 1126)">
   <path d="M 59.5215 -31.543 C 60.7422 -31.543 61.7676 -32.0312 63.1836 -32.8613 L 103.174 -55.9082 C 105.371 -57.1777 106.494 -58.3008 106.494 -60.1074 C 106.494 -61.8652 105.371 -62.9883 103.174 -64.2578 L 63.1836 -87.3535 C 61.7676 -88.1836 60.7422 -88.6719 59.5215 -88.6719 C 58.3008 -88.6719 57.2754 -88.1836 55.8594 -87.3535 L 15.8691 -64.2578 C 13.6719 -62.9883 12.5488 -61.8652 12.5488 -60.1074 C 12.5488 -58.3008 13.6719 -57.1777 15.8691 -55.9082 L 55.8594 -32.8613 C 57.2754 -32.0312 58.3008 -31.543 59.5215 -31.543 Z M 59.5215 -6.83594 C 60.6934 -6.83594 61.6211 -7.37305 63.0371 -8.1543 L 104.883 -32.4219 C 106.152 -33.1543 106.641 -34.082 106.641 -34.9121 C 106.641 -35.8887 106.152 -36.6211 105.713 -36.9141 L 61.0352 -11.2305 C 60.4492 -10.8887 60.0586 -10.6934 59.5215 -10.6934 C 59.0332 -10.6934 58.5938 -10.8887 58.0078 -11.2305 L 13.3301 -36.9141 C 12.8906 -36.6211 12.4023 -35.8887 12.4023 -34.9121 C 12.4023 -34.082 12.9395 -33.1055 14.1602 -32.4219 L 56.0547 -8.1543 C 57.4219 -7.37305 58.3496 -6.83594 59.5215 -6.83594 Z M 59.5215 16.8945 C 60.6934 16.8945 61.6211 16.3574 63.0371 15.5762 L 104.883 -8.69141 C 106.104 -9.375 106.641 -10.3516 106.641 -11.1816 C 106.641 -12.1582 106.152 -12.8906 105.713 -13.1836 L 61.0352 12.5 C 60.4492 12.793 60.0586 13.0371 59.5215 13.0371 C 59.0332 13.0371 58.5938 12.793 58.0078 12.5 L 13.3301 -13.1836 C 12.8906 -12.8906 12.4023 -12.1582 12.4023 -11.1816 C 12.4023 -10.3516 12.9395 -9.375 14.1602 -8.69141 L 56.0547 15.5762 C 57.4219 16.3574 58.3496 16.8945 59.5215 16.8945 Z"/>
  </g>
  <g id="Ultralight-M" transform="matrix(1 0 0 1 500.922 1126)">
   <path d="M 58.7891 -33.0078 C 59.7656 -33.0078 60.5469 -33.4473 61.7188 -34.1309 L 102.197 -57.4707 C 103.906 -58.3984 104.883 -59.3262 104.883 -60.8887 C 104.883 -62.4023 103.906 -63.3301 102.197 -64.3066 L 61.7188 -87.6465 C 60.5469 -88.3301 59.7656 -88.7207 58.7891 -88.7207 C 57.8125 -88.7207 57.0312 -88.3301 55.8594 -87.6465 L 15.3809 -64.3066 C 13.6719 -63.3301 12.6465 -62.4023 12.6465 -60.8887 C 12.6465 -59.3262 13.6719 -58.3984 15.3809 -57.4707 L 55.8594 -34.1309 C 57.0312 -33.4473 57.8125 -33.0078 58.7891 -33.0078 Z M 58.7891 -8.1543 C 59.7656 -8.1543 60.5469 -8.54492 61.7188 -9.22852 L 103.613 -33.3496 C 104.639 -33.9355 105.078 -34.668 105.078 -35.3516 C 105.078 -36.0352 104.834 -36.4746 104.688 -36.6699 L 60.2051 -11.1328 C 59.668 -10.8398 59.2773 -10.6445 58.7891 -10.6445 C 58.3008 -10.6445 57.9102 -10.8398 57.373 -11.1328 L 12.8906 -36.6699 C 12.6953 -36.4746 12.5 -36.0352 12.5 -35.3516 C 12.5 -34.668 12.8906 -33.9355 13.9648 -33.3496 L 55.8105 -9.22852 C 56.9824 -8.54492 57.8125 -8.1543 58.7891 -8.1543 Z M 58.7891 15.9668 C 59.7656 15.9668 60.5469 15.5273 61.7188 14.8438 L 103.613 -9.27734 C 104.639 -9.86328 105.078 -10.5957 105.078 -11.2793 C 105.078 -11.9141 104.834 -12.4023 104.688 -12.5977 L 60.2051 12.9395 C 59.668 13.2812 59.2773 13.4277 58.7891 13.4277 C 58.3008 13.4277 57.9102 13.2812 57.373 12.9395 L 12.8906 -12.5977 C 12.6953 -12.4023 12.5 -11.9141 12.5 -11.2793 C 12.5 -10.5957 12.8906 -9.86328 13.9648 -9.27734 L 55.8105 14.8438 C 56.9824 15.5273 57.8125 15.9668 58.7891 15.9668 Z"/>
  </g>
  <g id="Black-S" transform="matrix(1 0 0 1 2882.72 696)">
   <path d="M 50.6836 -26.6113 C 52.7344 -26.6113 54.6875 -27.5391 57.4707 -29.1504 L 86.2793 -45.752 C 90.2344 -48.0469 92.6758 -50.6348 92.6758 -54.6875 C 92.6758 -58.7402 90.2344 -61.3281 86.2793 -63.623 L 57.4707 -80.2246 C 54.6875 -81.8359 52.7344 -82.7637 50.6836 -82.7637 C 48.6328 -82.7637 46.6797 -81.8359 43.8965 -80.2246 L 15.0879 -63.623 C 11.1328 -61.3281 8.69141 -58.7402 8.69141 -54.6875 C 8.69141 -50.6348 11.1328 -48.0469 15.0879 -45.752 L 43.8965 -29.1504 C 46.6797 -27.5391 48.6328 -26.6113 50.6836 -26.6113 Z M 50.6836 -7.08008 C 52.7344 -7.08008 54.6875 -8.00781 57.4707 -9.61914 L 86.2793 -26.3184 C 90.2344 -28.6133 92.6758 -31.2012 92.6758 -35.2539 C 92.6758 -38.4277 91.1621 -40.8203 88.5742 -42.7734 L 56.3965 -23.877 C 54.0527 -22.5098 52.4414 -21.7285 50.6836 -21.7285 C 48.9258 -21.7285 47.3145 -22.5098 44.9707 -23.877 L 12.793 -42.7734 C 10.2051 -40.8203 8.69141 -38.4277 8.69141 -35.2539 C 8.69141 -31.2012 11.1328 -28.6133 15.0879 -26.3184 L 43.8965 -9.61914 C 46.6797 -8.00781 48.6328 -7.08008 50.6836 -7.08008 Z M 50.6836 11.9629 C 52.7344 11.9629 54.6875 11.0352 57.4707 9.42383 L 86.2793 -7.27539 C 90.2344 -9.57031 92.6758 -12.1582 92.6758 -16.2109 C 92.6758 -19.3848 91.1621 -21.7773 88.5742 -23.7305 L 56.3965 -4.83398 C 54.0527 -3.4668 52.4414 -2.68555 50.6836 -2.68555 C 48.9258 -2.68555 47.3145 -3.4668 44.9707 -4.83398 L 12.793 -23.7305 C 10.2051 -21.7773 8.69141 -19.3848 8.69141 -16.2109 C 8.69141 -12.1582 11.1328 -9.57031 15.0879 -7.27539 L 43.8965 9.42383 C 46.6797 11.0352 48.6328 11.9629 50.6836 11.9629 Z"/>
  </g>
  <g id="Heavy-S" transform="matrix(1 0 0 1 2586.37 696)">
   <path d="M 50.3418 -26.7578 C 52.2949 -26.7578 54.1992 -27.5879 56.7871 -29.1016 L 85.791 -45.8496 C 89.5996 -48.0957 91.7969 -50.4395 91.7969 -54.0527 C 91.7969 -57.7148 89.5996 -60.0098 85.791 -62.2559 L 56.7871 -79.0039 C 54.1992 -80.5176 52.2949 -81.3477 50.3418 -81.3477 C 48.3398 -81.3477 46.4844 -80.5176 43.8477 -79.0039 L 14.8926 -62.2559 C 11.0352 -60.0098 8.88672 -57.7148 8.88672 -54.0527 C 8.88672 -50.4395 11.0352 -48.0957 14.8926 -45.8496 L 43.8477 -29.1016 C 46.4844 -27.5879 48.3398 -26.7578 50.3418 -26.7578 Z M 50.3418 -7.42188 C 52.2461 -7.42188 54.0527 -8.30078 56.5918 -9.81445 L 86.377 -27.1484 C 89.7461 -29.1504 91.7969 -31.4453 91.7969 -34.8633 C 91.7969 -37.6953 90.2832 -39.8438 88.0371 -41.5039 L 55.0781 -22.2168 C 53.125 -21.0938 51.7578 -20.4102 50.3418 -20.4102 C 48.877 -20.4102 47.5098 -21.0938 45.6055 -22.2168 L 12.6465 -41.5039 C 10.3516 -39.8438 8.88672 -37.6953 8.88672 -34.8633 C 8.88672 -31.4453 10.9375 -29.1016 14.3066 -27.1484 L 44.043 -9.81445 C 46.6309 -8.30078 48.3887 -7.42188 50.3418 -7.42188 Z M 50.3418 11.2305 C 52.2461 11.2305 54.0527 10.3516 56.5918 8.83789 L 86.377 -8.49609 C 89.7461 -10.4492 91.7969 -12.793 91.7969 -16.2109 C 91.7969 -19.043 90.2832 -21.2402 88.0371 -22.8516 L 55.0781 -3.56445 C 53.125 -2.44141 51.7578 -1.80664 50.3418 -1.80664 C 48.877 -1.80664 47.5098 -2.44141 45.6055 -3.56445 L 12.6465 -22.8516 C 10.3516 -21.2402 8.88672 -19.043 8.88672 -16.2109 C 8.88672 -12.793 10.9375 -10.4492 14.3066 -8.49609 L 44.043 8.83789 C 46.6309 10.3516 48.3887 11.2305 50.3418 11.2305 Z"/>
  </g>
  <g id="Bold-S" transform="matrix(1 0 0 1 2290.05 696)">
   <path d="M 49.9512 -26.9531 C 51.8066 -26.9531 53.6133 -27.6855 56.0059 -29.1016 L 85.2051 -45.9961 C 88.916 -48.1445 90.7715 -50.1953 90.7715 -53.3691 C 90.7715 -56.543 88.916 -58.5938 85.2051 -60.7422 L 56.0059 -77.6367 C 53.6133 -79.0527 51.8066 -79.7852 49.9512 -79.7852 C 48.0469 -79.7852 46.2402 -79.0527 43.8477 -77.6367 L 14.6484 -60.7422 C 10.9375 -58.5938 9.08203 -56.543 9.08203 -53.3691 C 9.08203 -50.1953 10.9375 -48.1445 14.6484 -45.9961 L 43.8477 -29.1016 C 46.2402 -27.6855 48.0469 -26.9531 49.9512 -26.9531 Z M 49.9512 -7.86133 C 51.709 -7.86133 53.3203 -8.64258 55.6152 -10.0098 L 86.4258 -28.0762 C 89.209 -29.6875 90.7715 -31.6895 90.7715 -34.4238 C 90.7715 -36.8652 89.3555 -38.8184 87.4023 -40.0879 L 53.5645 -20.3613 C 52.0996 -19.4824 51.0254 -18.9941 49.9512 -18.9941 C 48.8281 -18.9941 47.7539 -19.4824 46.2891 -20.3613 L 12.4512 -40.0879 C 10.498 -38.8184 9.08203 -36.8652 9.08203 -34.4238 C 9.08203 -31.6895 10.6934 -29.6875 13.4277 -28.0762 L 44.2383 -10.0098 C 46.5332 -8.64258 48.1445 -7.86133 49.9512 -7.86133 Z M 49.9512 10.3516 C 51.709 10.3516 53.3203 9.57031 55.6152 8.20312 L 86.4258 -9.86328 C 89.1602 -11.4746 90.7715 -13.5254 90.7715 -16.2109 C 90.7715 -18.6523 89.3555 -20.6055 87.4023 -21.875 L 53.5645 -2.14844 C 52.0996 -1.26953 51.0254 -0.78125 49.9512 -0.78125 C 48.8281 -0.78125 47.7539 -1.26953 46.2891 -2.14844 L 12.4512 -21.875 C 10.498 -20.6055 9.08203 -18.6523 9.08203 -16.2109 C 9.08203 -13.5254 10.6934 -11.4746 13.4277 -9.86328 L 44.2383 8.20312 C 46.5332 9.57031 48.1445 10.3516 49.9512 10.3516 Z"/>
  </g>
  <g id="Semibold-S" transform="matrix(1 0 0 1 1993.61 696)">
   <path d="M 49.6582 -27.0996 C 51.4648 -27.0996 53.2227 -27.7344 55.5176 -29.0527 L 84.8145 -46.0449 C 88.4277 -48.1934 90.0879 -50.0488 90.0879 -52.8809 C 90.0879 -55.7129 88.4277 -57.5684 84.8145 -59.7168 L 55.5176 -76.709 C 53.2227 -78.0273 51.4648 -78.6621 49.6582 -78.6621 C 47.8516 -78.6621 46.0938 -78.0273 43.7988 -76.709 L 14.502 -59.7168 C 10.8887 -57.5684 9.22852 -55.7129 9.22852 -52.8809 C 9.22852 -50.0488 10.8887 -48.1934 14.502 -46.0449 L 43.7988 -29.0527 C 46.0938 -27.7344 47.8516 -27.0996 49.6582 -27.0996 Z M 49.6582 -8.10547 C 51.3672 -8.10547 52.832 -8.88672 54.9316 -10.1074 L 86.4746 -28.7109 C 88.8184 -30.127 90.0879 -31.8848 90.0879 -34.082 C 90.0879 -36.3281 88.6719 -38.0859 87.0117 -39.1113 L 52.5391 -19.043 C 51.3672 -18.4082 50.5371 -17.9688 49.6582 -17.9688 C 48.7793 -17.9688 47.9492 -18.4082 46.7773 -19.043 L 12.3047 -39.1113 C 10.6445 -38.0859 9.22852 -36.3281 9.22852 -34.082 C 9.22852 -31.8848 10.498 -30.0781 12.793 -28.7109 L 44.3848 -10.1074 C 46.4844 -8.88672 47.9492 -8.10547 49.6582 -8.10547 Z M 49.6582 9.76562 C 51.3672 9.76562 52.832 8.98438 54.9316 7.76367 L 86.4746 -10.8398 C 88.8184 -12.1582 90.0879 -14.0137 90.0879 -16.2109 C 90.0879 -18.4082 88.6719 -20.166 87.0117 -21.1914 L 52.5391 -1.17188 C 51.3672 -0.488281 50.5371 -0.0976562 49.6582 -0.0976562 C 48.7793 -0.0976562 47.9492 -0.488281 46.7773 -1.17188 L 12.3047 -21.1914 C 10.6445 -20.166 9.22852 -18.4082 9.22852 -16.2109 C 9.22852 -14.0137 10.498 -12.1582 12.793 -10.8398 L 44.3848 7.76367 C 46.4844 8.98438 47.9492 9.76562 49.6582 9.76562 Z"/>
  </g>
  <g id="Medium-S" transform="matrix(1 0 0 1 1697.12 696)">
   <path d="M 49.4629 -27.1484 C 51.2207 -27.1484 52.9297 -27.7832 55.0781 -29.0527 L 84.5215 -46.1426 C 88.0859 -48.1934 89.5508 -49.9023 89.5508 -52.4902 C 89.5508 -55.127 88.0859 -56.8359 84.5215 -58.8867 L 55.0781 -75.9766 C 52.9297 -77.2461 51.2207 -77.832 49.4629 -77.832 C 47.6562 -77.832 45.9961 -77.2461 43.7988 -75.9766 L 14.3555 -58.8867 C 10.8398 -56.8359 9.32617 -55.127 9.32617 -52.4902 C 9.32617 -49.9023 10.8398 -48.1934 14.3555 -46.1426 L 43.7988 -29.0527 C 45.9961 -27.7832 47.6562 -27.1484 49.4629 -27.1484 Z M 49.4629 -8.30078 C 51.0742 -8.30078 52.4902 -9.08203 54.3945 -10.2051 L 86.5234 -29.1992 C 88.5254 -30.4199 89.5508 -32.0312 89.5508 -33.8379 C 89.5508 -35.8887 88.1836 -37.5 86.6699 -38.3789 L 51.7578 -18.0664 C 50.8301 -17.5781 50.1465 -17.2363 49.4629 -17.2363 C 48.7793 -17.2363 48.0469 -17.5781 47.168 -18.0664 L 12.207 -38.3789 C 10.6934 -37.5 9.32617 -35.8887 9.32617 -33.8379 C 9.32617 -32.0312 10.4004 -30.3711 12.3535 -29.1992 L 44.4824 -10.2051 C 46.4355 -9.08203 47.8516 -8.30078 49.4629 -8.30078 Z M 49.4629 9.32617 C 51.0742 9.32617 52.4902 8.59375 54.3945 7.4707 L 86.5234 -11.5234 C 88.5254 -12.6953 89.5508 -14.3555 89.5508 -16.1621 C 89.5508 -18.2129 88.1836 -19.8242 86.6699 -20.7031 L 51.7578 -0.439453 C 50.8301 0.0976562 50.1465 0.439453 49.4629 0.439453 C 48.7793 0.439453 48.0469 0.0976562 47.168 -0.439453 L 12.207 -20.7031 C 10.6934 -19.8242 9.32617 -18.2129 9.32617 -16.1621 C 9.32617 -14.3555 10.4004 -12.6953 12.3535 -11.5234 L 44.4824 7.4707 C 46.4355 8.59375 47.8516 9.32617 49.4629 9.32617 Z"/>
  </g>
  <g id="Regular-S" transform="matrix(1 0 0 1 1400.67 696)">
   <path d="M 49.1699 -27.2949 C 50.8789 -27.2949 52.5391 -27.832 54.5898 -29.0039 L 84.1309 -46.1914 C 87.5977 -48.2422 88.8672 -49.7559 88.8672 -52.0508 C 88.8672 -54.2969 87.5977 -55.8594 84.1309 -57.8613 L 54.5898 -75.0488 C 52.5391 -76.2695 50.8789 -76.7578 49.1699 -76.7578 C 47.4609 -76.7578 45.8008 -76.2695 43.7988 -75.0488 L 14.209 -57.8613 C 10.791 -55.8594 9.47266 -54.2969 9.47266 -52.0508 C 9.47266 -49.7559 10.791 -48.2422 14.209 -46.1914 L 43.7988 -29.0039 C 45.8008 -27.832 47.4609 -27.2949 49.1699 -27.2949 Z M 49.1699 -8.59375 C 50.6836 -8.59375 52.002 -9.32617 53.7598 -10.3516 L 86.6211 -29.834 C 88.1836 -30.8105 88.8672 -32.2266 88.8672 -33.5449 C 88.8672 -35.3516 87.5488 -36.7676 86.2793 -37.4023 L 50.7324 -16.7969 C 50.1465 -16.5039 49.6094 -16.2598 49.1699 -16.2598 C 48.7305 -16.2598 48.1934 -16.5039 47.6562 -16.7969 L 12.0605 -37.4023 C 10.8398 -36.7676 9.47266 -35.3516 9.47266 -33.5449 C 9.47266 -32.2266 10.2539 -30.7617 11.7676 -29.834 L 44.6289 -10.3516 C 46.3867 -9.32617 47.6562 -8.59375 49.1699 -8.59375 Z M 49.1699 8.78906 C 50.6836 8.78906 52.002 8.05664 53.7598 7.03125 L 86.6211 -12.5 C 88.1348 -13.3789 88.8672 -14.8438 88.8672 -16.1621 C 88.8672 -17.9688 87.5488 -19.4336 86.2793 -20.0195 L 50.7324 0.537109 C 50.1465 0.878906 49.6094 1.12305 49.1699 1.12305 C 48.7305 1.12305 48.1934 0.878906 47.6562 0.537109 L 12.0605 -20.0195 C 10.8398 -19.4336 9.47266 -17.9688 9.47266 -16.1621 C 9.47266 -14.8438 10.2539 -13.3789 11.7676 -12.5 L 44.6289 7.03125 C 46.3867 8.05664 47.6562 8.78906 49.1699 8.78906 Z"/>
  </g>
  <g id="Light-S" transform="matrix(1 0 0 1 1104.94 696)">
   <path d="M 48.1934 -29.248 C 49.6094 -29.248 50.9277 -29.6875 52.6367 -30.6641 L 82.8613 -48.1934 C 85.6445 -49.8535 86.7676 -51.123 86.7676 -53.0762 C 86.7676 -55.0293 85.6445 -56.2988 82.8613 -57.9102 L 52.6367 -75.4395 C 50.9277 -76.416 49.6094 -76.9043 48.1934 -76.9043 C 46.7773 -76.9043 45.459 -76.416 43.75 -75.4395 L 13.5254 -57.9102 C 10.7422 -56.2988 9.61914 -55.0293 9.61914 -53.0762 C 9.61914 -51.123 10.7422 -49.8535 13.5254 -48.1934 L 43.75 -30.6641 C 45.459 -29.6875 46.7773 -29.248 48.1934 -29.248 Z M 48.1934 -10.3027 C 49.4629 -10.3027 50.5859 -10.8887 52.0508 -11.7676 L 84.9121 -31.0547 C 86.2305 -31.8848 86.8164 -33.0078 86.8164 -34.082 C 86.8164 -35.498 85.8398 -36.6211 84.9609 -37.0605 L 49.6094 -16.6504 C 49.0723 -16.3574 48.6328 -16.1621 48.1934 -16.1621 C 47.7539 -16.1621 47.3145 -16.3574 46.7773 -16.6504 L 11.4746 -37.0605 C 10.5469 -36.6211 9.57031 -35.498 9.57031 -34.082 C 9.57031 -33.0078 10.2051 -31.8359 11.4746 -31.0547 L 44.3359 -11.7676 C 45.8496 -10.8887 46.9238 -10.3027 48.1934 -10.3027 Z M 48.1934 7.56836 C 49.4629 7.56836 50.5859 6.98242 52.0508 6.05469 L 84.9121 -13.2324 C 86.2305 -14.0137 86.8164 -15.1855 86.8164 -16.2598 C 86.8164 -17.6758 85.8398 -18.75 84.9609 -19.2383 L 49.6094 1.17188 C 49.0723 1.46484 48.6328 1.66016 48.1934 1.66016 C 47.7539 1.66016 47.3145 1.46484 46.7773 1.17188 L 11.4746 -19.2383 C 10.5469 -18.75 9.57031 -17.6758 9.57031 -16.2598 C 9.57031 -15.1855 10.2051 -14.0137 11.4746 -13.2324 L 44.3359 6.05469 C 45.8496 6.98242 46.9238 7.56836 48.1934 7.56836 Z"/>
  </g>
  <g id="Thin-S" transform="matrix(1 0 0 1 809.523 696)">
   <path d="M 46.9238 -31.7871 C 47.9492 -31.7871 48.8281 -32.1777 50.0488 -32.8613 L 81.2012 -50.8789 C 83.1055 -51.9531 84.0332 -52.9297 84.0332 -54.3945 C 84.0332 -55.9082 83.1055 -56.8359 81.2012 -57.959 L 50.0488 -75.9277 C 48.8281 -76.6602 47.9492 -77.0508 46.9238 -77.0508 C 45.8984 -77.0508 44.9707 -76.6602 43.75 -75.9277 L 12.6465 -57.959 C 10.6934 -56.8359 9.81445 -55.9082 9.81445 -54.3945 C 9.81445 -52.9297 10.6934 -51.9531 12.6465 -50.8789 L 43.75 -32.8613 C 44.9707 -32.1777 45.8984 -31.7871 46.9238 -31.7871 Z M 46.9238 -12.5 C 47.9004 -12.5 48.6816 -12.9395 49.8535 -13.623 L 82.666 -32.666 C 83.6914 -33.3008 84.1309 -34.082 84.1309 -34.8145 C 84.1309 -35.6934 83.6426 -36.377 83.2031 -36.6699 L 48.1445 -16.5039 C 47.6562 -16.2109 47.3145 -16.0645 46.9238 -16.0645 C 46.4844 -16.0645 46.1426 -16.2109 45.6543 -16.5039 L 10.6445 -36.6699 C 10.2051 -36.377 9.66797 -35.6934 9.66797 -34.8145 C 9.66797 -34.082 10.1562 -33.252 11.1328 -32.666 L 43.9941 -13.623 C 45.1172 -12.9395 45.9473 -12.5 46.9238 -12.5 Z M 46.9238 5.95703 C 47.9004 5.95703 48.6816 5.51758 49.8535 4.83398 L 82.666 -14.209 C 83.6914 -14.7949 84.1309 -15.625 84.1309 -16.3574 C 84.1309 -17.2363 83.6426 -17.9199 83.2031 -18.2129 L 48.1445 1.95312 C 47.6562 2.24609 47.3145 2.39258 46.9238 2.39258 C 46.4844 2.39258 46.1426 2.24609 45.6543 1.95312 L 10.6445 -18.2129 C 10.2051 -17.9199 9.66797 -17.2363 9.66797 -16.3574 C 9.66797 -15.625 10.1562 -14.7949 11.1328 -14.209 L 43.9941 4.83398 C 45.1172 5.51758 45.9473 5.95703 46.9238 5.95703 Z"/>
  </g>
  <g id="Ultralight-S" transform="matrix(1 0 0 1 513.471 696)">
   <path d="M 46.2402 -33.1055 C 47.0703 -33.1055 47.7539 -33.4473 48.7305 -34.0332 L 80.3223 -52.2461 C 81.7871 -53.0762 82.6172 -53.8574 82.6172 -55.127 C 82.6172 -56.3965 81.7871 -57.1777 80.3223 -58.0078 L 48.7305 -76.2207 C 47.7539 -76.7578 47.0703 -77.1484 46.2402 -77.1484 C 45.4102 -77.1484 44.7266 -76.7578 43.75 -76.2207 L 12.1582 -58.0078 C 10.6934 -57.1777 9.86328 -56.3965 9.86328 -55.127 C 9.86328 -53.8574 10.6934 -53.0762 12.1582 -52.2461 L 43.75 -34.0332 C 44.7266 -33.4473 45.4102 -33.1055 46.2402 -33.1055 Z M 46.2402 -13.6719 C 47.0703 -13.6719 47.7051 -14.0137 48.6816 -14.5996 L 81.4941 -33.4961 C 82.373 -34.0332 82.7148 -34.6191 82.7148 -35.2051 C 82.7148 -35.791 82.4707 -36.2793 82.2754 -36.4258 L 47.3633 -16.3574 C 46.9238 -16.1133 46.6309 -15.9668 46.2402 -15.9668 C 45.8496 -15.9668 45.5566 -16.1133 45.1172 -16.3574 L 10.2051 -36.4258 C 10.0098 -36.2793 9.76562 -35.791 9.76562 -35.2051 C 9.76562 -34.6191 10.1074 -34.0332 10.9863 -33.4961 L 43.7988 -14.5996 C 44.7754 -14.0137 45.4102 -13.6719 46.2402 -13.6719 Z M 46.2402 5.12695 C 47.0703 5.12695 47.7051 4.78516 48.6816 4.19922 L 81.4941 -14.7461 C 82.373 -15.2344 82.7148 -15.8691 82.7148 -16.4551 C 82.7148 -17.041 82.4707 -17.4805 82.2754 -17.6758 L 47.3633 2.39258 C 46.9238 2.63672 46.6309 2.7832 46.2402 2.7832 C 45.8496 2.7832 45.5566 2.63672 45.1172 2.39258 L 10.2051 -17.6758 C 10.0098 -17.4805 9.76562 -17.041 9.76562 -16.4551 C 9.76562 -15.8691 10.1074 -15.2344 10.9863 -14.7461 L 43.7988 4.19922 C 44.7754 4.78516 45.4102 5.12695 46.2402 5.12695 Z"/>
  </g>
 </g>
</svg>
