<?xml version="1.0" encoding="utf-8"?>
<!-- Generator: Adobe Illustrator 23.1.1, SVG Export Plug-In . SVG Version: 6.00 Build 0)  -->
<svg version="1.1" id="Layer_1" xmlns="http://www.w3.org/2000/svg" xmlns:xlink="http://www.w3.org/1999/xlink" x="0px" y="0px"
	 viewBox="0 0 3300 2200" style="enable-background:new 0 0 3300 2200;" xml:space="preserve">
<style type="text/css">
	.st0{fill:#FFFFFF;}
	.st1{fill:none;stroke:#000000;stroke-width:0.5;}
	.st2{font-family:'Arial-BoldMT';}
	.st3{font-size:12px;}
	.st4{font-family:'ArialMT';}
	.st5{opacity:0.4;fill:#00AEEF;enable-background:new    ;}
	.st6{fill:#27AAE1;}
	.st7{fill:none;stroke:#27AAE1;stroke-width:0.577;}
	.st8{fill:#FFFFFF;stroke:#000000;stroke-width:2;stroke-miterlimit:10;}
	.st9{fill:#FFFFFF;stroke:#000000;stroke-width:3;stroke-miterlimit:10;}
	.st10{fill:#FFFFFF;stroke:#000000;stroke-width:4;stroke-miterlimit:10;}
	.st11{fill:#FFFFFF;stroke:#000000;stroke-width:5;stroke-miterlimit:10;}
	.st12{fill:#FFFFFF;stroke:#000000;stroke-width:6;stroke-miterlimit:10;}
	.st13{fill:#FFFFFF;stroke:#000000;stroke-width:7;stroke-miterlimit:10;}
	.st14{fill:#FFFFFF;stroke:#000000;stroke-width:8;stroke-miterlimit:10;}
	.st15{fill:#FFFFFF;stroke:#000000;stroke-width:9;stroke-miterlimit:10;}
	.st16{fill:#FFFFFF;stroke:#000000;stroke-width:10;stroke-miterlimit:10;}
</style>
<g id="Notes">
	<rect id="artboard" class="st0" width="3300" height="2200"/>
	<line class="st1" x1="263" y1="292.5" x2="3036" y2="292.5"/>
	<text transform="matrix(1 0 0 1 263 322)" class="st2 st3">Weight/Scale Variations</text>
	<text transform="matrix(1 0 0 1 536.0362 322)" class="st4 st3">Ultralight</text>
	<text transform="matrix(1 0 0 1 844.7501 322)" class="st4 st3">Thin</text>
	<text transform="matrix(1 0 0 1 1140.1193 322)" class="st4 st3">Light</text>
	<text transform="matrix(1 0 0 1 1428.8282 322)" class="st4 st3">Regular</text>
	<text transform="matrix(1 0 0 1 1725.2202 322)" class="st4 st3">Medium</text>
	<text transform="matrix(1 0 0 1 2018.2563 322)" class="st4 st3">Semibold</text>
	<text transform="matrix(1 0 0 1 2327.9712 322)" class="st4 st3">Bold</text>
	<text transform="matrix(1 0 0 1 2619.6831 322)" class="st4 st3">Heavy</text>
	<line class="st1" x1="263" y1="1903.5" x2="3036" y2="1903.5"/>
	<g transform="matrix(1 0 0 1 263 1933)">
		<path d="M9.2,0.8c4.3,0,7.9-3.6,7.9-7.9S13.5-15,9.2-15s-7.9,3.6-7.9,7.9C1.4-2.7,5,0.8,9.2,0.8z M9.2-0.7c-3.5,0-6.4-2.8-6.4-6.4
			s2.8-6.4,6.4-6.4s6.4,2.8,6.4,6.4C15.7-3.5,12.8-0.7,9.2-0.7z M9.2-3.4c0.5,0,0.7-0.3,0.8-0.8V-7h2.2C12.7-6.3,13-6.6,13-7
			c0-0.5-0.3-0.7-0.8-1H10v-2c0-0.5-0.3-0.8-0.8-0.8S8.5-10.5,9-10v2H6.3C5.8-7.8,5.4-7.5,5.4-7s0.4,0.7,0.8,0H9v2.7
			C8.5-3.8,8.8-3.4,9.2-3.4z"/>
	</g>
	<g transform="matrix(1 0 0 1 281.506 1933)">
		<path d="M11.7,2.9c5.4,0,10-4.5,10-10c0-5.4-4.5-10-10-10c-5.4,0-10,4.5-10,10C1.7-1.6,6.3,2.9,11.7,2.9z M11.7,1.2
			c-4.6,0-8.3-3.7-8.3-8.3s3.7-8.3,8.3-8.3S20-11.7,20-7.1C20-2.4,16.3,1.2,11.7,1.2z M11.7-2.4c0.5,0,0.8-0.4,0.8-0.9V-6h3.1
			c0.5-0.2,0.9-0.5,0.9-1s-0.4-0.8-0.9-1h-3.1v-2.9c0-0.6-0.3-0.9-0.8-0.9s-0.8,0.4-1.2,0.9V-8H7.8C7.3-7.9,6.9-7.6,6.9-7
			c0,0.5,0.4,0.8,0.9,1h2.7v2.7C10.9-2.8,11.2-2.4,11.7-2.4z"/>
	</g>
	<g transform="matrix(1 0 0 1 304.924 1933)">
		<path d="M15,5.7c7,0,12.7-5.8,12.7-12.7c0-7-5.8-12.7-12.7-12.7C8-19.8,2.3-14,2.3-7C2.3-0.1,8,5.7,15,5.7z M15,3.9
			C8.9,3.9,4.1-1,4.1-7S8.9-17.9,15-17.9c6,0,10.9,4.9,10.9,10.9S21,3.9,15,3.9z M15-1.1c0.6,0,0.9-0.4,1.1-1V-6h4
			c0.6-0.1,1-0.5,1-1c0-0.6-0.4-0.9-1-1h-4v-4.2c-0.2-0.6-0.6-1-1.1-1c-0.6,0-0.9,0.4-0.9,1V-8H9.8c-0.6,0.1-1,0.4-1,1s0.4,0.9,1,1
			H14v3.9C14.1-1.5,14.4-1.1,15-1.1z"/>
	</g>
	<text transform="matrix(1 0 0 1 2918.728 322)" class="st4 st3">Black</text>
	<text transform="matrix(1 0 0 1 263 1953)" class="st2 st3">Design Variations</text>
	<text transform="matrix(1 0 0 1 263 1971)" class="st4 st3">Symbols are supported in up to nine weights and three scales.</text>
	<text transform="matrix(1 0 0 1 263 1989)" class="st4 st3">For optimal layout with text and other symbols, vertically align</text>
	<rect x="776" y="1919" class="st5" width="3" height="14"/>
	<g transform="matrix(1 0 0 1 779 1933)">
		<path d="M10.5,0h1.8L7.2-14H5.4L0.3,0h1.8l1.4-4h5.6L10.5,0z M6.3-12L6.3-12l2.2,6H4.2L6.3-12z"/>
	</g>
	<rect x="792" y="1919" class="st5" width="3" height="14"/>
	<text transform="matrix(1 0 0 1 263 2007)" class="st4 st3">symbols with the adjacent text.</text>
	<text transform="matrix(1 0 0 1 776 1953)" class="st2 st3">Margins</text>
	<text transform="matrix(1 0 0 1 776 1971)" class="st4 st3">Leading and trailing margins on the left and right side of each symbol</text>
	<text transform="matrix(1 0 0 1 776 1989)" class="st4 st3">can be adjusted by modifying the width of the blue rectangles.</text>
	<text transform="matrix(1 0 0 1 776 2007)" class="st4 st3">Modifications are automatically applied proportionally to all</text>
	<g transform="matrix(1 0 0 1 1289 1933)">
		<path d="M2.8,3.1l1.5,1.5C5.1,5.4,6.1,5.4,7,4.4L17.3-6.7c0.4,0.3,0.8,0.3,1.3,0.2l1-0.2L20.3-6v0.5c-0.1,0.5,0.1,1,0.5,1.5
			l0.8,0.8c0.5,0.5,1.2,0.5,1.6,0.1l3.3-3.3C27-6.9,27-7.5,26.5-8l-0.8-0.8c-0.5-0.5-0.9-0.7-1.4-0.6l-0.5,0.1L23.1-10l0.3-1.1
			c0.1-0.6,0-1-0.6-1.6l-2.4-2.4c-3.5-3.5-8.1-3.4-11.2-0.3C8.8-15,8.7-14.4,9-14c0.2,0.4,0.7,0.6,1.4,0.4c1.5-0.4,3-0.3,4.5,0.7
			l-0.6,1.6c-0.2,0.6-0.2,1.1,0,1.5L3,0.4C2.1,1.3,2,2.3,2.8,3.1z M10.7-15.1c2.7-2,6-1.7,8.4,0.7l2.6,2.6c0.2,0.2,0.3,0.4,0.2,0.7
			l-0.4,1.6L23.1-8H24c0.3,0,0.4,0,0.6,0.2l0.6,0.6l-2.8,2.7l-0.6-0.6c-0.2-0.2-0.2-0.3-0.2-0.6l0.1-1l-1.6-1.6L18.5-8
			c-0.3,0.1-0.4,0.1-0.7-0.2l-2.2-2.2c-0.2-0.2-0.3-0.4-0.1-0.7l0.9-2.3c-1.6-1.5-3.7-2.4-5.8-1.7c-0.1,0-0.2,0-0.2,0
			C10.6-15,10.6-15.1,10.7-15.1z M4.1,2.4c-0.5-0.5-0.3-0.8,0-1.1l11-10.1l1.2,1.2L6.2,3.3c-0.3,0.3-0.7,0.4-1.1,0L4.1,2.4z"/>
	</g>
	<text transform="matrix(1 0 0 1 776 2025)" class="st4 st3">scales and weights.</text>
	<text transform="matrix(1 0 0 1 1289 1953)" class="st2 st3">Exporting</text>
	<text transform="matrix(1 0 0 1 1289 1971)" class="st4 st3">Symbols should be outlined when exporting to ensure the</text>
	<text transform="matrix(1 0 0 1 1289 1989)" class="st4 st3">design is preserved when submitting to Xcode.</text>
	<text id="template-version" transform="matrix(1 0 0 1 2958.8496 1933)" class="st4 st3">Template v.1.0</text>
	<text transform="matrix(1 0 0 1 2832.5625 1951)" class="st4 st3">Generated from square.stack.3d.up.fill</text>
	<text transform="matrix(1 0 0 1 2921.9238 1969)" class="st4 st3">Typeset at 100 points</text>
	<text transform="matrix(1 0 0 1 263 726)" class="st4 st3">Small</text>
	<text transform="matrix(1 0 0 1 263 1156)" class="st4 st3">Medium</text>
	<text transform="matrix(1 0 0 1 263 1586)" class="st4 st3">Large</text>
</g>
<g id="Guides">
	<g id="H-reference" transform="matrix(1 0 0 1 339 696)">
		<path class="st6" d="M54.9,0h2.7l-27-70.5h-2.5L1,0h2.7L13-24.5h32.8L54.9,0z M29.2-67.1h0.2l15.4,40.4h-31L29.2-67.1z"/>
	</g>
	<line id="Baseline-S" class="st7" x1="263" y1="696" x2="3036" y2="696"/>
	<line id="Capline-S" class="st7" x1="263" y1="625.5" x2="3036" y2="625.5"/>
	<g transform="matrix(1 0 0 1 339 1126)">
		<path class="st6" d="M54.9,0h2.7l-27-70.5h-2.5L1,0h2.7L13-24.5h32.8L54.9,0z M29.2-67.1h0.2l15.4,40.4h-31L29.2-67.1z"/>
	</g>
	<line id="Baseline-M" class="st7" x1="263" y1="1126" x2="3036" y2="1126"/>
	<line id="Capline-M" class="st7" x1="263" y1="1055.5" x2="3036" y2="1055.5"/>
	<g transform="matrix(1 0 0 1 339 1556)">
		<path class="st6" d="M54.9,0h2.7l-27-70.5h-2.5L1,0h2.7L13-24.5h32.8L54.9,0z M29.2-67.1h0.2l15.4,40.4h-31L29.2-67.1z"/>
	</g>
	<line id="Baseline-L" class="st7" x1="263" y1="1556" x2="3036" y2="1556"/>
	<line id="Capline-L" class="st7" x1="263" y1="1485.5" x2="3036" y2="1485.5"/>
	<rect id="left-margin" x="1387.8" y="1030.8" class="st5" width="12.2" height="119.3"/>
	<rect id="right-margin" x="1499.8" y="1030.8" class="st5" width="12.2" height="119.3"/>
</g>
<circle class="st8" cx="561" cy="661" r="60"/>
<circle class="st9" cx="857.3" cy="661.6" r="60"/>
<circle class="st10" cx="1153.7" cy="662.6" r="60"/>
<circle class="st11" cx="1451" cy="664.2" r="60"/>
<circle class="st12" cx="1746.6" cy="664.6" r="60"/>
<circle class="st13" cx="2043" cy="664" r="60"/>
<circle class="st14" cx="2341" cy="662" r="60"/>
<circle class="st15" cx="2636" cy="662" r="60"/>
<circle class="st16" cx="2933.5" cy="661.5" r="60"/>
<circle class="st8" cx="562" cy="1090" r="70"/>
<circle class="st9" cx="857.3" cy="1090" r="70"/>
<circle class="st10" cx="1153.7" cy="1091" r="70"/>
<circle class="st11" cx="1449.9" cy="1091.2" r="70"/>
<circle class="st12" cx="1746.8" cy="1091.9" r="70"/>
<circle class="st13" cx="2042.3" cy="1091.5" r="70.5"/>
<circle class="st14" cx="2342.3" cy="1091.9" r="71"/>
<circle class="st15" cx="2637" cy="1092.9" r="71.5"/>
<circle class="st16" cx="2933.2" cy="1089.5" r="72"/>
<circle class="st8" cx="562" cy="1519.7" r="92.5"/>
<circle class="st9" cx="855.6" cy="1523.1" r="92.5"/>
<circle class="st10" cx="1153.7" cy="1523" r="92.5"/>
<circle class="st11" cx="1449.9" cy="1524.7" r="92.5"/>
<circle class="st12" cx="1746.5" cy="1521.7" r="92.5"/>
<circle class="st13" cx="2043" cy="1522.9" r="92.5"/>
<circle class="st14" cx="2339.9" cy="1522.7" r="92.5"/>
<circle class="st15" cx="2637.3" cy="1524.3" r="92.5"/>
<circle class="st16" cx="2933.2" cy="1523.7" r="92.5"/>
<g id="Symbols">
	<g id="Black-L" transform="matrix(1 0 0 1 2850.54 1556)">
		<path d="M82.9-21.2c3.3,0,6.3-1.4,10.6-3.8l47.7-27.6c6.3-3.7,9.9-7.5,9.9-13.4s-3.5-9.7-9.9-13.4L93.5-107
			c-4.3-2.5-7.4-3.8-10.6-3.8s-6.3,1.3-10.6,3.8L24.5-79.4c-6.3,3.7-9.9,7.5-9.9,13.4s3.5,9.7,9.9,13.4L72.2-25
			C76.5-22.6,79.6-21.2,82.9-21.2z M82.9,10.6c3.2,0,6.1-1.5,10.3-3.9l49.3-28.8c5.4-3.2,8.7-6.9,8.7-12.4c0-4.6-2.4-8.2-6.2-10.8
			L90.4-13.4c-3,1.8-5.2,2.8-7.5,2.8s-4.5-1-7.5-2.8L20.8-45.3c-3.7,2.6-6.2,6.2-6.2,10.8c0,5.5,3.3,9.3,8.7,12.4L72.6,6.7
			C76.8,9.1,79.7,10.6,82.9,10.6z M82.9,41.2c3.2,0,6.1-1.5,10.3-3.9l49.3-28.8c5.4-3.2,8.7-7,8.7-12.5c0-4.6-2.4-8.2-6.2-10.8
			l-54.6,32c-3,1.8-5.2,2.8-7.5,2.8s-4.5-1-7.5-2.8L20.8-14.7c-3.7,2.6-6.2,6.2-6.2,10.8c0,5.5,3.3,9.3,8.7,12.5l49.3,28.8
			C76.8,39.7,79.7,41.2,82.9,41.2z"/>
	</g>
	<g id="Heavy-L" transform="matrix(1 0 0 1 2554.68 1556)">
		<path d="M82-22.3c3,0,5.9-1.2,9.8-3.5L140-53.6c5.9-3.5,9-6.8,9-12.1c0-5.2-3.1-8.6-9-12.1l-48.2-27.9c-3.9-2.2-6.8-3.5-9.8-3.5
			s-5.9,1.2-9.8,3.5L24-77.8c-5.9,3.4-9,6.8-9,12.1s3.1,8.6,9,12.1l48.2,27.9C76.1-23.5,79-22.3,82-22.3z M82,9.4
			c2.9,0,5.6-1.3,9.3-3.5l50.4-29.5c4.7-2.7,7.4-6.1,7.4-10.6c0-4.1-2.2-7.2-5.4-9.4L88.3-11.3C85.8-9.8,84-8.9,82-8.9
			c-1.9,0-3.7-0.9-6.3-2.4L20.3-43.6c-3.2,2.2-5.4,5.3-5.4,9.4c0,4.6,2.8,7.9,7.4,10.6L72.7,5.9C76.5,8.1,79.1,9.4,82,9.4z M82,39.7
			c2.9,0,5.6-1.3,9.3-3.5l50.4-29.4c4.6-2.7,7.4-6.1,7.4-10.6c0-4.1-2.2-7.2-5.4-9.4L88.3,19c-2.5,1.5-4.3,2.4-6.3,2.4
			c-1.9,0-3.7-0.9-6.3-2.4L20.3-13.3c-3.2,2.2-5.4,5.3-5.4,9.4c0,4.6,2.8,7.9,7.4,10.6l50.4,29.4C76.5,38.4,79.1,39.7,82,39.7z"/>
	</g>
	<g id="Bold-L" transform="matrix(1 0 0 1 2258.95 1556)">
		<path d="M81.1-23.4c2.7,0,5.4-1.1,8.8-3.1l48.8-28.3c5.4-3.2,8.1-6.1,8.1-10.6s-2.7-7.5-8.1-10.6l-48.8-28.3
			c-3.5-2.1-6.1-3.1-8.8-3.1c-2.8,0-5.4,1-8.9,3.1L23.3-76c-5.4,3.1-8.1,6.1-8.1,10.6s2.7,7.4,8.1,10.6l48.8,28.3
			C75.6-24.5,78.3-23.4,81.1-23.4z M81.1,8.1c2.6,0,4.9-1.2,8.2-3.1L141-25.3c3.8-2.2,5.9-5,5.9-8.6c0-3.4-2-6.1-4.6-7.8L85.9-9
			c-2,1.1-3.4,1.8-4.9,1.8S78-7.9,76.1-9L19.8-41.7c-2.5,1.7-4.5,4.3-4.5,7.8c0,3.6,2.1,6.4,5.9,8.6L72.8,4.9
			C76.1,6.9,78.4,8.1,81.1,8.1z M81.1,38.1c2.6,0,4.9-1.2,8.2-3.1L141,4.7c3.8-2.2,5.9-5,5.9-8.6c0-3.4-2-6.1-4.6-7.8L85.9,21
			c-2,1.2-3.4,1.9-4.9,1.9s-3-0.7-4.9-1.9L19.8-11.7c-2.5,1.7-4.5,4.3-4.5,7.8c0,3.6,2.1,6.4,5.9,8.6L72.8,35
			C76.1,36.9,78.4,38.1,81.1,38.1z"/>
	</g>
	<g id="Semibold-L" transform="matrix(1 0 0 1 1962.9 1556)">
		<path d="M80.4-24.3c2.6,0,5-0.9,8.3-2.8l49.2-28.5c5.1-3,7.4-5.6,7.4-9.6s-2.3-6.6-7.4-9.6l-49.2-28.5c-3.2-1.9-5.7-2.8-8.3-2.8
			s-5,1-8.3,2.8L22.9-74.8c-5.1,3-7.4,5.6-7.4,9.6c0,4.1,2.3,6.6,7.4,9.6l49.2,28.5C75.3-25.2,77.8-24.3,80.4-24.3z M80.4,7.2
			c2.4,0,4.5-1.1,7.5-2.9l52.5-30.8c3.2-1.9,4.9-4.3,4.9-7.3s-1.8-5.3-4-6.6l-57,33c-1.6,0.9-2.7,1.5-4,1.5c-1.2,0-2.4-0.5-4-1.5
			l-57-33c-2.1,1.3-4,3.7-4,6.6s1.7,5.4,4.9,7.3L72.9,4.3C75.8,6.1,77.9,7.2,80.4,7.2z M80.4,37c2.4,0,4.5-1.1,7.5-2.8l52.5-30.8
			c3.2-1.9,4.9-4.4,4.9-7.3c0-3-1.8-5.3-4-6.7l-57,33.1c-1.6,0.9-2.7,1.5-4,1.5c-1.2,0-2.4-0.6-4-1.5l-57-33.1c-2.1,1.4-4,3.7-4,6.7
			c0,2.9,1.7,5.4,4.9,7.3l52.5,30.8C75.8,35.8,77.9,37,80.4,37z"/>
	</g>
	<g id="Medium-L" transform="matrix(1 0 0 1 1666.7 1556)">
		<path d="M79.9-24.9c2.4,0,4.7-0.8,7.7-2.6l49.6-28.7c4.8-2.8,6.9-5.2,6.9-8.8c0-3.7-2.1-6-6.9-8.8l-49.6-28.7
			c-3-1.7-5.3-2.6-7.7-2.6c-2.4,0-4.8,0.9-7.8,2.6L22.6-73.8c-4.8,2.8-7,5.2-7,8.8c0,3.6,2.1,6,7,8.8l49.5,28.7
			C75.1-25.7,77.4-24.9,79.9-24.9z M79.9,6.4c2.2,0,4.2-1,6.9-2.6L140-27.4c2.7-1.6,4.1-3.8,4.1-6.2c0-2.6-1.8-4.7-3.6-5.8L83.1-6.2
			C81.8-5.5,80.9-5,79.9-5s-2-0.4-3.3-1.2L19.1-39.5c-1.9,1.1-3.6,3.2-3.6,5.8c0,2.4,1.4,4.6,4.1,6.2L72.9,3.8
			C75.6,5.4,77.6,6.4,79.9,6.4z M79.9,36.1c2.2,0,4.2-1.1,6.9-2.7L140,2.2c2.7-1.6,4.1-3.9,4.1-6.2c0-2.6-1.8-4.7-3.6-5.8L83.1,23.4
			c-1.3,0.7-2.2,1.2-3.2,1.2s-2-0.5-3.3-1.2L19.1-9.8c-1.9,1.1-3.6,3.2-3.6,5.8c0,2.4,1.4,4.6,4.1,6.2l53.2,31.2
			C75.6,35.1,77.6,36.1,79.9,36.1z"/>
	</g>
	<g id="Regular-L" transform="matrix(1 0 0 1 1370.65 1556)">
		<path d="M79.2-25.7c2.3,0,4.4-0.8,7.1-2.3l49.9-29c4.5-2.6,6.3-4.6,6.3-7.8c0-3.1-1.9-5.2-6.3-7.8l-49.9-28.9
			c-2.7-1.6-4.8-2.3-7.1-2.3c-2.2,0-4.4,0.7-7.1,2.3L22.2-72.6c-4.5,2.6-6.3,4.7-6.3,7.8c0,3.2,1.8,5.2,6.3,7.8l49.9,29
			C74.8-26.5,77-25.7,79.2-25.7z M79.2,5.6c2.1,0,3.8-1,6.2-2.4l54.1-31.8c2.1-1.3,3.1-3.1,3.1-4.9c0-2.2-1.5-4-3-4.7L81.5-4.6
			c-0.9,0.5-1.6,0.8-2.3,0.8c-0.7,0-1.4-0.3-2.3-0.8L18.8-38.2c-1.4,0.7-3,2.5-3,4.7c0,1.8,1,3.7,3.1,4.9L73,3.2
			C75.4,4.6,77.1,5.6,79.2,5.6z M79.2,35c2.1,0,3.8-0.9,6.2-2.4l54.1-31.7c2.1-1.3,3.1-3.2,3.1-4.9c0-2.2-1.5-4-3-4.7L81.5,24.8
			c-0.9,0.5-1.6,0.9-2.3,0.9c-0.7,0-1.4-0.3-2.3-0.9L18.8-8.7c-1.4,0.7-3,2.5-3,4.7c0,1.7,1,3.6,3.1,4.9L73,32.6
			C75.4,34.1,77.1,35,79.2,35z"/>
	</g>
	<g id="Light-L" transform="matrix(1 0 0 1 1075.15 1556)">
		<path d="M78-28.1c1.9,0,3.6-0.7,5.9-2l50.8-29.4c3.6-2.1,5.3-3.9,5.3-6.5c0-2.7-1.7-4.4-5.3-6.6L83.9-102c-2.3-1.3-4-2-5.9-2
			s-3.6,0.7-5.9,2L21.3-72.7c-3.6,2.1-5.2,3.9-5.2,6.6c0,2.7,1.6,4.4,5.2,6.5l50.8,29.4C74.4-28.8,76.1-28.1,78-28.1z M78,3.4
			c1.8,0,3.3-0.8,5.4-2l54.1-31.5c1.9-1.1,2.7-2.6,2.7-4.1c0-1.7-1.1-3.1-2.1-3.6l-58,33.4C79.3-4,78.7-3.7,78-3.7S76.7-4,75.8-4.4
			L18-37.8c-1,0.5-2.1,1.9-2.1,3.6c0,1.4,0.9,3,2.7,4.1L72.7,1.4C74.7,2.6,76.2,3.4,78,3.4z M78,33.5c1.8,0,3.3-0.8,5.4-2.1
			l54.1-31.5c1.8-1.1,2.7-2.6,2.7-4c0-1.8-1.1-3.1-2.1-3.7l-58,33.4c-0.8,0.5-1.5,0.8-2.1,0.8s-1.3-0.3-2.1-0.8L18-7.8
			c-1,0.6-2.1,1.9-2.1,3.7c0,1.4,0.9,2.9,2.7,4l54.1,31.5C74.7,32.7,76.2,33.5,78,33.5z"/>
	</g>
	<g id="Thin-L" transform="matrix(1 0 0 1 780.055 1556)">
		<path d="M76.4-31.3c1.4,0,2.6-0.6,4.3-1.6l51.9-29.9c2.6-1.5,3.9-2.8,3.9-4.9c0-2.2-1.3-3.5-3.9-4.9l-51.9-29.9
			c-1.7-1-2.9-1.6-4.3-1.6s-2.6,0.6-4.3,1.6L20.2-72.7c-2.5,1.5-3.9,2.7-3.9,4.9c0,2.1,1.4,3.5,3.9,4.9L72.1-33
			C73.7-31.9,75-31.3,76.4-31.3z M76.4,0.6c1.4,0,2.5-0.6,4.2-1.6l54.1-31.2c1.5-0.8,2.1-2,2.1-2.9c0-1.1-0.5-1.9-0.9-2.1l-57.6,33
			c-0.7,0.4-1.3,0.6-1.9,0.6s-1.2-0.2-1.9-0.6L16.9-37.3C16.5-37,16-36.2,16-35.2s0.6,2.1,2.1,2.9L72.2-0.9C73.8,0,75,0.6,76.4,0.6z
			 M76.4,31.4c1.4,0,2.5-0.6,4.2-1.6l54.1-31.2c1.5-0.9,2.1-2,2.1-2.9c0-1.1-0.5-1.9-0.9-2.2L78.3,26.6c-0.7,0.4-1.3,0.7-1.9,0.7
			s-1.2-0.2-1.9-0.7l-57.6-33C16.5-6.1,16-5.3,16-4.2c0,1,0.6,2.1,2.1,2.9l54.1,31.2C73.8,30.9,75,31.4,76.4,31.4z"/>
	</g>
	<g id="Ultralight-L" transform="matrix(1 0 0 1 484.174 1556)">
		<path d="M75.5-33c1.2,0,2.1-0.5,3.5-1.3l52.4-30.2c2-1.1,3.2-2.2,3.2-4.1s-1.2-3-3.2-4.1L79-103c-1.4-0.8-2.3-1.3-3.5-1.3
			s-2.1,0.5-3.5,1.3L19.6-72.8c-2,1.1-3.2,2.2-3.2,4.1s1.2,3,3.2,4.1l52.5,30.2C73.4-33.5,74.4-33,75.5-33z M75.5-0.8
			c1.2,0,2.1-0.5,3.6-1.3l54.1-31.1c1.3-0.7,1.8-1.6,1.8-2.4c0-0.7-0.1-1.2-0.2-1.4L77.3-4.1c-0.7,0.4-1.2,0.6-1.8,0.6
			c-0.6,0-1.1-0.2-1.8-0.6L16.4-37c-0.1,0.1-0.3,0.7-0.3,1.4c0,0.8,0.5,1.7,1.8,2.4L72-2.1C73.4-1.3,74.3-0.8,75.5-0.8z M75.5,30.4
			c1.2,0,2.1-0.5,3.6-1.3L133.2-2c1.3-0.8,1.8-1.6,1.8-2.4c0-0.7-0.1-1.2-0.2-1.4L77.3,27.1c-0.7,0.4-1.2,0.6-1.8,0.6
			c-0.6,0-1.1-0.2-1.8-0.6L16.4-5.8c-0.1,0.2-0.3,0.7-0.3,1.4c0,0.8,0.5,1.6,1.8,2.4L72,29.1C73.4,29.9,74.3,30.4,75.5,30.4z"/>
	</g>
	<g id="Black-M" transform="matrix(1 0 0 1 2868.65 1126)">
		<path d="M64.7-24.2c2.6,0,5.1-1.2,8.7-3.3l36.8-21.2c5.1-2.9,8.2-6.2,8.2-11.5c0-5.2-3.1-8.5-8.2-11.5L73.4-92.8
			c-3.6-2.1-6.1-3.3-8.7-3.3s-5.1,1.2-8.7,3.3L19.3-71.6c-5,2.9-8.2,6.2-8.2,11.5c0,5.2,3.2,8.5,8.2,11.5l36.8,21.2
			C59.6-25.4,62.1-24.2,64.7-24.2z M64.7,0.7c2.6,0,5.1-1.2,8.7-3.3L110-23.8c5.1-3,8.3-6.3,8.3-11.6c0-4.1-2-7.2-5.3-9.7L72-21
			c-3,1.8-5.1,2.8-7.4,2.8c-2.3,0-4.4-1-7.4-2.8L16.4-45c-3.3,2.5-5.3,5.6-5.3,9.7c0,5.2,3.2,8.6,8.3,11.6L56-2.5
			C59.6-0.4,62.1,0.7,64.7,0.7z M64.7,25.1c2.6,0,5.1-1.2,8.7-3.3L110,0.6c5.1-2.9,8.3-6.3,8.3-11.5c0-4.1-2-7.2-5.3-9.7L72,3.5
			c-3,1.8-5.1,2.8-7.4,2.8c-2.3,0-4.4-1-7.4-2.8l-41-24.1c-3.3,2.5-5.3,5.6-5.3,9.7c0,5.2,3.2,8.6,8.3,11.5L56,21.8
			C59.6,23.9,62.1,25.1,64.7,25.1z"/>
	</g>
	<g id="Heavy-M" transform="matrix(1 0 0 1 2572.58 1126)">
		<path d="M64.1-24.8c2.5,0,4.8-1.1,8.1-3l37.1-21.4c4.8-2.8,7.6-5.8,7.6-10.4s-2.8-7.6-7.6-10.4L72.2-91.3
			c-3.3-1.9-5.6-2.9-8.1-2.9c-2.4,0-4.8,1-8.1,2.9L18.9-69.9c-4.8,2.8-7.6,5.8-7.6,10.4s2.8,7.6,7.6,10.4L56-27.7
			C59.3-25.8,61.7-24.8,64.1-24.8z M64.1,0c2.4,0,4.7-1.1,8-3L110-25c4.3-2.5,6.9-5.5,6.9-9.8c0-3.6-1.8-6.3-4.7-8.4l-42,24.6
			c-2.5,1.5-4.2,2.3-6.1,2.3s-3.6-0.8-6.1-2.3L16-43.3c-2.8,2.1-4.7,4.8-4.7,8.4c0,4.3,2.6,7.3,7,9.8L56.2-3C59.4-1.1,61.7,0,64.1,0
			z M64.1,23.9c2.4,0,4.7-1.1,8-3l37.9-22c4.3-2.5,6.9-5.5,6.9-9.8c0-3.6-1.8-6.3-4.7-8.4l-42,24.6c-2.5,1.5-4.2,2.3-6.1,2.3
			S60.5,6.8,58,5.3L16-19.4c-2.8,2.1-4.7,4.8-4.7,8.4c0,4.3,2.6,7.3,7,9.8l37.9,22.1C59.4,22.8,61.7,23.9,64.1,23.9z"/>
	</g>
	<g id="Bold-M" transform="matrix(1 0 0 1 2276.55 1126)">
		<path d="M63.4-25.3c2.3,0,4.5-0.9,7.5-2.6l37.5-21.7c4.5-2.6,6.8-5.2,6.8-9.1c0-4-2.3-6.5-6.8-9.1L70.9-89.6
			c-3-1.7-5.2-2.6-7.5-2.6c-2.3,0-4.5,0.9-7.5,2.6L18.5-67.9c-4.5,2.6-6.9,5.2-6.9,9.1c0,4,2.3,6.5,6.9,9.1L56-28
			C58.9-26.3,61.1-25.3,63.4-25.3z M63.4-0.8c2.2,0,4.2-1,7-2.7l39.3-22.9c3.5-2.1,5.5-4.5,5.5-7.9c0-3.1-1.7-5.4-4.1-7l-43,25
			c-1.9,1.1-3.2,1.8-4.6,1.8s-2.8-0.6-4.6-1.8L15.7-41.4c-2.3,1.6-4.1,4-4.1,7c0,3.4,2,5.9,5.5,7.9l39.3,23
			C59.2-1.9,61.2-0.8,63.4-0.8z M63.4,22.6c2.2,0,4.2-1,7-2.7l39.3-23c3.5-2,5.5-4.5,5.5-7.9c0-3-1.7-5.4-4.1-7l-43,25.1
			c-1.9,1.1-3.2,1.8-4.6,1.8s-2.8-0.6-4.6-1.8L15.7-18c-2.3,1.6-4.1,4-4.1,7c0,3.4,2,5.9,5.5,7.9l39.3,23
			C59.2,21.6,61.2,22.6,63.4,22.6z"/>
	</g>
	<g id="Semibold-M" transform="matrix(1 0 0 1 1980.33 1126)">
		<path d="M62.9-25.7c2.2,0,4.2-0.8,7-2.4L107.7-50c4.3-2.5,6.3-4.8,6.3-8.3s-2.1-5.8-6.3-8.3L69.9-88.4c-2.7-1.6-4.8-2.4-7-2.4
			c-2.2,0-4.2,0.8-7,2.4L18.2-66.6c-4.3,2.5-6.3,4.8-6.3,8.3s2.1,5.7,6.3,8.3l37.7,21.9C58.7-26.6,60.7-25.7,62.9-25.7z M62.9-1.4
			c2.1,0,3.9-0.9,6.4-2.4l40.3-23.6c2.9-1.7,4.4-3.9,4.4-6.5c0-2.7-1.6-4.8-3.6-6.1L66.6-14.6c-1.4,0.8-2.5,1.4-3.6,1.4
			s-2.2-0.5-3.7-1.4L15.4-40.1c-2,1.3-3.6,3.4-3.6,6.1c0,2.7,1.6,4.9,4.4,6.5L56.5-3.9C59.1-2.3,60.9-1.4,62.9-1.4z M62.9,21.7
			c2.1,0,3.9-0.9,6.4-2.4l40.3-23.6c2.8-1.7,4.4-3.9,4.4-6.6c0-2.6-1.6-4.7-3.6-6L66.6,8.5c-1.4,0.8-2.5,1.4-3.6,1.4
			s-2.2-0.5-3.7-1.4L15.4-17c-2,1.3-3.6,3.4-3.6,6c0,2.7,1.6,4.9,4.4,6.6l40.3,23.6C59.1,20.8,60.9,21.7,62.9,21.7z"/>
	</g>
	<g id="Medium-M" transform="matrix(1 0 0 1 1683.98 1126)">
		<path d="M62.5-26c2.1,0,4.1-0.7,6.7-2.2l37.9-22c4.2-2.4,6-4.4,6-7.6c0-3.1-1.8-5.2-6-7.6l-37.9-22c-2.6-1.5-4.6-2.2-6.7-2.2
			c-2.1,0-4.1,0.7-6.6,2.2L18-65.5c-4.2,2.4-6,4.5-6,7.6c0,3.2,1.8,5.2,6,7.6l37.9,22C58.5-26.8,60.5-26,62.5-26z M62.5-1.9
			c2,0,3.6-0.9,6-2.2l41-24.1c2.4-1.5,3.7-3.4,3.7-5.6c0-2.4-1.6-4.3-3.3-5.3L65.4-13.3c-1.1,0.7-2,1.1-2.9,1.1
			c-0.8,0-1.7-0.4-2.8-1.1L15.2-39.1c-1.7,1-3.3,2.9-3.3,5.3c0,2.2,1.3,4.2,3.7,5.6l41,24.1C58.9-2.7,60.6-1.9,62.5-1.9z M62.5,21
			c2,0,3.6-0.9,6-2.3l41-24.1c2.4-1.4,3.7-3.4,3.7-5.6c0-2.3-1.6-4.2-3.3-5.3L65.4,9.5c-1.1,0.6-2,1.1-2.9,1.1
			c-0.8,0-1.7-0.4-2.8-1.1L15.2-16.3c-1.7,1-3.3,2.9-3.3,5.3c0,2.2,1.3,4.2,3.7,5.6l41,24.1C58.9,20.1,60.6,21,62.5,21z"/>
	</g>
	<g id="Regular-M" transform="matrix(1 0 0 1 1387.76 1126)">
		<path d="M62.1-26.5c2,0,3.9-0.6,6.2-2l38.2-22.2c4-2.3,5.5-4.1,5.5-6.8c0-2.6-1.5-4.4-5.5-6.7L68.3-86.3c-2.3-1.4-4.2-2-6.2-2
			c-2,0-3.9,0.6-6.2,2L17.7-64.2c-4,2.3-5.5,4.1-5.5,6.7c0,2.7,1.5,4.5,5.5,6.8l38.2,22.2C58.3-27.1,60.1-26.5,62.1-26.5z M62.1-2.4
			c1.8,0,3.3-0.8,5.3-2.1l41.9-24.8c1.8-1.1,2.6-2.7,2.6-4.2c0-2-1.5-3.7-2.8-4.3L64-11.6c-0.7,0.4-1.3,0.7-1.9,0.7
			c-0.6,0-1.2-0.3-1.9-0.7L15-37.7c-1.4,0.6-2.8,2.3-2.8,4.3c0,1.5,0.9,3.2,2.7,4.2L56.7-4.4C58.8-3.2,60.3-2.4,62.1-2.4z
			 M62.1,20.1c1.8,0,3.3-0.8,5.3-2.1l41.9-24.8c1.8-1,2.6-2.7,2.6-4.2c0-2-1.5-3.6-2.8-4.3L64,10.9c-0.7,0.4-1.3,0.7-1.9,0.7
			c-0.6,0-1.2-0.3-1.9-0.7L15-15.3c-1.4,0.7-2.8,2.3-2.8,4.3c0,1.5,0.9,3.2,2.7,4.2L56.7,18C58.8,19.2,60.3,20.1,62.1,20.1z"/>
	</g>
	<g id="Light-M" transform="matrix(1 0 0 1 1092.15 1126)">
		<path d="M61-28.7c1.7,0,3.2-0.5,5.1-1.7l39-22.6c3.2-1.9,4.5-3.3,4.5-5.6s-1.4-3.8-4.5-5.7l-39-22.6c-2-1.1-3.5-1.7-5.1-1.7
			c-1.7,0-3.2,0.6-5.1,1.7l-39,22.6c-3.2,1.9-4.5,3.4-4.5,5.7s1.4,3.8,4.5,5.6l39,22.6C57.8-29.2,59.3-28.7,61-28.7z M61-4.3
			c1.5,0,2.8-0.7,4.5-1.8l41.9-24.6c1.6-0.9,2.3-2.2,2.3-3.5c0-1.6-1.1-2.8-2-3.3l-45,25.9C62.1-11.2,61.5-11,61-11
			s-1.1-0.2-1.7-0.6l-45-25.9c-0.9,0.5-2,1.8-2,3.3c0,1.2,0.7,2.6,2.3,3.5L56.4-6.1C58.2-5,59.5-4.3,61-4.3z M61,18.7
			c1.5,0,2.8-0.7,4.5-1.7l41.9-24.6c1.6-0.9,2.3-2.3,2.3-3.5c0-1.6-1.1-2.8-2-3.3l-45,25.9c-0.6,0.3-1.2,0.6-1.7,0.6
			s-1.1-0.3-1.7-0.6l-45-25.9c-0.9,0.5-2,1.7-2,3.3c0,1.2,0.7,2.6,2.3,3.5L56.4,17C58.2,18,59.5,18.7,61,18.7z"/>
	</g>
	<g id="Thin-M" transform="matrix(1 0 0 1 796.901 1126)">
		<path d="M59.5-31.5c1.2,0,2.2-0.5,3.7-1.3l40-23c2.2-1.3,3.3-2.4,3.3-4.2s-1.1-2.9-3.3-4.2l-40-23.1c-1.4-0.8-2.4-1.3-3.7-1.3
			s-2.2,0.5-3.7,1.3l-40,23.1c-2.2,1.3-3.3,2.4-3.3,4.2s1.1,2.9,3.3,4.2l40,23C57.3-32,58.3-31.5,59.5-31.5z M59.5-6.8
			c1.2,0,2.1-0.5,3.5-1.3l41.8-24.3c1.3-0.7,1.8-1.7,1.8-2.5c0-1-0.5-1.7-0.9-2L61-11.2c-0.6,0.3-1,0.5-1.5,0.5s-0.9-0.2-1.5-0.5
			L13.3-36.9c-0.4,0.3-0.9,1-0.9,2c0,0.8,0.5,1.8,1.8,2.5L56.1-8.2C57.4-7.4,58.3-6.8,59.5-6.8z M59.5,16.9c1.2,0,2.1-0.5,3.5-1.3
			l41.8-24.3c1.2-0.7,1.8-1.7,1.8-2.5c0-1-0.5-1.7-0.9-2L61,12.5c-0.6,0.3-1,0.5-1.5,0.5s-0.9-0.2-1.5-0.5L13.3-13.2
			c-0.4,0.3-0.9,1-0.9,2c0,0.8,0.5,1.8,1.8,2.5l41.9,24.3C57.4,16.4,58.3,16.9,59.5,16.9z"/>
	</g>
	<g id="Ultralight-M" transform="matrix(1 0 0 1 500.922 1126)">
		<path d="M58.8-33c1,0,1.8-0.4,2.9-1.1l40.5-23.3c1.7-0.9,2.7-1.9,2.7-3.4s-1-2.4-2.7-3.4L61.7-87.6c-1.2-0.7-2-1.1-2.9-1.1
			c-1,0-1.8,0.4-2.9,1.1L15.4-64.3c-1.7,1-2.7,1.9-2.7,3.4c0,1.6,1,2.5,2.7,3.4l40.5,23.3C57-33.4,57.8-33,58.8-33z M58.8-8.2
			c1,0,1.8-0.4,2.9-1.1l41.9-24.1c1-0.6,1.5-1.3,1.5-2s-0.2-1.1-0.4-1.3L60.2-11.1c-0.5,0.3-0.9,0.5-1.4,0.5s-0.9-0.2-1.4-0.5
			L12.9-36.7c-0.2,0.2-0.4,0.6-0.4,1.3s0.4,1.4,1.5,2L55.8-9.2C57-8.5,57.8-8.2,58.8-8.2z M58.8,16c1,0,1.8-0.4,2.9-1.1l41.9-24.1
			c1-0.6,1.5-1.3,1.5-2c0-0.6-0.2-1.1-0.4-1.3L60.2,12.9c-0.5,0.3-0.9,0.5-1.4,0.5s-0.9-0.1-1.4-0.5L12.9-12.6
			c-0.2,0.2-0.4,0.7-0.4,1.3c0,0.7,0.4,1.4,1.5,2l41.8,24.1C57,15.5,57.8,16,58.8,16z"/>
	</g>
	<g id="Black-S" transform="matrix(1 0 0 1 2882.72 696)">
		<path d="M50.7-26.6c2.1,0,4-0.9,6.8-2.5l28.8-16.6c4-2.3,6.4-4.9,6.4-8.9s-2.4-6.6-6.4-8.9L57.5-80.2c-2.8-1.6-4.7-2.5-6.8-2.5
			s-4,0.9-6.8,2.5L15.1-63.6c-4,2.3-6.4,4.9-6.4,8.9s2.4,6.6,6.4,8.9l28.8,16.6C46.7-27.5,48.6-26.6,50.7-26.6z M50.7-7.1
			c2.1,0,4-0.9,6.8-2.5l28.8-16.7c4-2.3,6.4-4.9,6.4-8.9c0-3.2-1.5-5.6-4.1-7.5L56.4-23.9c-2.3,1.4-4,2.1-5.7,2.1
			c-1.8,0-3.4-0.8-5.7-2.1L12.8-42.8c-2.6,2-4.1,4.3-4.1,7.5c0,4.1,2.4,6.6,6.4,8.9L43.9-9.6C46.7-8,48.6-7.1,50.7-7.1z M50.7,12
			c2.1,0,4-0.9,6.8-2.5L86.3-7.3c4-2.3,6.4-4.9,6.4-8.9c0-3.2-1.5-5.6-4.1-7.5L56.4-4.8c-2.3,1.4-4,2.1-5.7,2.1
			c-1.8,0-3.4-0.8-5.7-2.1L12.8-23.7c-2.6,2-4.1,4.3-4.1,7.5c0,4.1,2.4,6.6,6.4,8.9L43.9,9.4C46.7,11,48.6,12,50.7,12z"/>
	</g>
	<g id="Heavy-S" transform="matrix(1 0 0 1 2586.37 696)">
		<path d="M50.3-26.8c2,0,3.9-0.8,6.4-2.3l29-16.7c3.8-2.2,6-4.6,6-8.2c0-3.7-2.2-6-6-8.2L56.8-79c-2.6-1.5-4.5-2.3-6.4-2.3
			c-2,0-3.9,0.8-6.5,2.3l-29,16.7c-3.9,2.2-6,4.5-6,8.2c0,3.6,2.1,6,6,8.2l29,16.7C46.5-27.6,48.3-26.8,50.3-26.8z M50.3-7.4
			c1.9,0,3.7-0.9,6.2-2.4l29.8-17.3c3.4-2,5.4-4.3,5.4-7.7c0-2.8-1.5-5-3.8-6.6l-33,19.3c-2,1.1-3.3,1.8-4.7,1.8
			c-1.5,0-2.8-0.7-4.7-1.8l-33-19.3c-2.3,1.7-3.8,3.8-3.8,6.6c0,3.4,2.1,5.8,5.4,7.7L44-9.8C46.6-8.3,48.4-7.4,50.3-7.4z M50.3,11.2
			c1.9,0,3.7-0.9,6.2-2.4L86.4-8.5c3.4-2,5.4-4.3,5.4-7.7c0-2.8-1.5-5-3.8-6.6L55-3.5c-2,1.1-3.3,1.8-4.7,1.8
			c-1.5,0-2.8-0.6-4.7-1.8l-33-19.3c-2.3,1.6-3.8,3.8-3.8,6.6c0,3.4,2.1,5.8,5.4,7.7L44,8.8C46.6,10.4,48.4,11.2,50.3,11.2z"/>
	</g>
	<g id="Bold-S" transform="matrix(1 0 0 1 2290.05 696)">
		<path d="M50-27c1.9,0,3.7-0.7,6.1-2.1L85.2-46c3.7-2.1,5.6-4.2,5.6-7.4s-1.9-5.2-5.6-7.4L56-77.6c-2.4-1.4-4.2-2.1-6.1-2.1
			c-1.9,0-3.7,0.7-6.1,2.1L14.6-60.7C10.9-58.6,9-56.5,9-53.3s1.9,5.2,5.6,7.4L43.8-29C46.2-27.7,48-27,50-27z M50-7.9
			c1.8,0,3.4-0.8,5.7-2.1l30.8-18.1c2.8-1.6,4.3-3.6,4.3-6.3c0-2.4-1.4-4.4-3.4-5.7L53.6-20.4C52.1-19.5,51-19,50-19
			c-1.1,0-2.2-0.5-3.7-1.4L12.5-40.1c-2,1.3-3.4,3.2-3.4,5.7c0,2.7,1.6,4.7,4.3,6.3L44.2-10C46.5-8.6,48.1-7.9,50-7.9z M50,10.4
			c1.8,0,3.4-0.8,5.7-2.1L86.4-9.9c2.7-1.6,4.3-3.7,4.3-6.3c0-2.4-1.4-4.4-3.4-5.7L53.6-2.1C52.1-1.3,51-0.8,50-0.8
			c-1.1,0-2.2-0.5-3.7-1.4L12.5-21.9c-2,1.3-3.4,3.2-3.4,5.7c0,2.7,1.6,4.7,4.3,6.3L44.2,8.2C46.5,9.6,48.1,10.4,50,10.4z"/>
	</g>
	<g id="Semibold-S" transform="matrix(1 0 0 1 1993.61 696)">
		<path d="M49.7-27.1c1.8,0,3.6-0.6,5.9-2l29.3-17c3.6-2.1,5.3-4,5.3-6.8s-1.7-4.7-5.3-6.8l-29.3-17c-2.3-1.3-4.1-2-5.9-2
			c-1.8,0-3.6,0.6-5.9,2l-29.3,17c-3.6,2.1-5.3,4-5.3,6.8s1.7,4.7,5.3,6.8l29.3,17C46.1-27.7,47.9-27.1,49.7-27.1z M49.7-8.1
			c1.7,0,3.2-0.8,5.3-2l31.5-18.6c2.3-1.4,3.6-3.2,3.6-5.4s-1.4-4-3.1-5L52.5-19c-1.2,0.6-2,1.1-2.9,1.1s-1.7-0.4-2.9-1.1L12.3-39.1
			c-1.7,1-3.1,2.8-3.1,5s1.3,4,3.6,5.4l31.6,18.6C46.5-8.9,47.9-8.1,49.7-8.1z M49.7,9.8c1.7,0,3.2-0.8,5.3-2l31.5-18.6
			c2.3-1.3,3.6-3.2,3.6-5.4s-1.4-4-3.1-5l-34.5,20c-1.2,0.7-2,1.1-2.9,1.1s-1.7-0.4-2.9-1.1l-34.5-20c-1.7,1-3.1,2.8-3.1,5
			s1.3,4.1,3.6,5.4L44.4,7.8C46.5,9,47.9,9.8,49.7,9.8z"/>
	</g>
	<g id="Medium-S" transform="matrix(1 0 0 1 1697.12 696)">
		<path d="M49.5-27.1c1.8,0,3.5-0.6,5.6-1.9l29.4-17.1c3.6-2.1,5-3.8,5-6.3c0-2.6-1.5-4.3-5-6.4L55.1-76c-2.1-1.3-3.9-1.9-5.6-1.9
			c-1.8,0-3.5,0.6-5.7,1.9L14.4-58.9c-3.5,2.1-5,3.8-5,6.4c0,2.6,1.5,4.3,5,6.3l29.4,17.1C46-27.8,47.7-27.1,49.5-27.1z M49.5-8.3
			c1.6,0,3-0.8,4.9-1.9l32.1-19c2-1.2,3-2.8,3-4.6c0-2.1-1.4-3.7-2.9-4.5L51.8-18.1c-0.9,0.5-1.6,0.8-2.3,0.8s-1.4-0.3-2.3-0.8
			l-35-20.3c-1.5,0.9-2.9,2.5-2.9,4.5c0,1.8,1.1,3.5,3,4.6l32.1,19C46.4-9.1,47.9-8.3,49.5-8.3z M49.5,9.3c1.6,0,3-0.7,4.9-1.9
			l32.1-19c2-1.2,3-2.8,3-4.6c0-2.1-1.4-3.7-2.9-4.5L51.8-0.4c-0.9,0.5-1.6,0.9-2.3,0.9s-1.4-0.3-2.3-0.9l-35-20.3
			c-1.5,0.9-2.9,2.5-2.9,4.5c0,1.8,1.1,3.5,3,4.6l32.1,19C46.4,8.6,47.9,9.3,49.5,9.3z"/>
	</g>
	<g id="Regular-S" transform="matrix(1 0 0 1 1400.67 696)">
		<path d="M49.2-27.3c1.7,0,3.4-0.5,5.4-1.7l29.5-17.2c3.5-2.1,4.7-3.6,4.7-5.9c0-2.2-1.3-3.8-4.7-5.8L54.6-75
			c-2.1-1.2-3.7-1.7-5.4-1.7s-3.4,0.5-5.4,1.7L14.2-57.9c-3.4,2-4.7,3.6-4.7,5.8c0,2.3,1.3,3.8,4.7,5.9L43.8-29
			C45.8-27.8,47.5-27.3,49.2-27.3z M49.2-8.6c1.5,0,2.8-0.7,4.6-1.8l32.9-19.5c1.6-1,2.2-2.4,2.2-3.7c0-1.8-1.3-3.2-2.6-3.9
			L50.7-16.8c-0.6,0.3-1.1,0.5-1.6,0.5c-0.4,0-1-0.2-1.5-0.5L12.1-37.4c-1.2,0.6-2.6,2.1-2.6,3.9c0,1.3,0.8,2.8,2.3,3.7l32.9,19.5
			C46.4-9.3,47.7-8.6,49.2-8.6z M49.2,8.8c1.5,0,2.8-0.7,4.6-1.8l32.9-19.5c1.5-0.9,2.2-2.3,2.2-3.7c0-1.8-1.3-3.3-2.6-3.9L50.7,0.5
			c-0.6,0.3-1.1,0.6-1.6,0.6c-0.4,0-1-0.2-1.5-0.6L12.1-20c-1.2,0.6-2.6,2.1-2.6,3.9c0,1.3,0.8,2.8,2.3,3.7L44.6,7
			C46.4,8.1,47.7,8.8,49.2,8.8z"/>
	</g>
	<g id="Light-S" transform="matrix(1 0 0 1 1104.94 696)">
		<path d="M48.2-29.2c1.4,0,2.7-0.4,4.4-1.4l30.2-17.5c2.8-1.7,3.9-2.9,3.9-4.9s-1.1-3.2-3.9-4.8L52.6-75.4c-1.7-1-3-1.5-4.4-1.5
			s-2.7,0.5-4.4,1.5L13.5-57.9c-2.8,1.6-3.9,2.9-3.9,4.8c0,2,1.1,3.2,3.9,4.9l30.2,17.5C45.5-29.7,46.8-29.2,48.2-29.2z M48.2-10.3
			c1.3,0,2.4-0.6,3.9-1.5L85-31.1c1.3-0.8,1.9-2,1.9-3c0-1.4-1-2.5-1.9-3L49.6-16.7c-0.5,0.3-1,0.5-1.4,0.5s-0.9-0.2-1.4-0.5
			L11.5-37.1c-0.9,0.4-1.9,1.6-1.9,3c0,1.1,0.6,2.2,1.9,3l32.9,19.3C45.8-10.9,46.9-10.3,48.2-10.3z M48.2,7.6
			c1.3,0,2.4-0.6,3.9-1.5L85-13.2c1.3-0.8,1.9-2,1.9-3c0-1.4-1-2.5-1.9-3L49.6,1.2c-0.5,0.3-1,0.5-1.4,0.5s-0.9-0.2-1.4-0.5
			L11.5-19.2c-0.9,0.5-1.9,1.6-1.9,3c0,1.1,0.6,2.2,1.9,3L44.3,6.1C45.8,7,46.9,7.6,48.2,7.6z"/>
	</g>
	<g id="Thin-S" transform="matrix(1 0 0 1 809.523 696)">
		<path d="M46.9-31.8c1,0,1.9-0.4,3.1-1.1l31.2-18C83.1-52,84-53,84-54.4c0-1.5-0.9-2.4-2.8-3.6L50-75.9c-1.2-0.7-2.1-1.1-3.1-1.1
			s-2,0.4-3.2,1.1L12.6-58c-2,1.1-2.8,2.1-2.8,3.6s0.9,2.4,2.8,3.5l31.1,18C45-32.2,45.9-31.8,46.9-31.8z M46.9-12.5
			c1,0,1.8-0.4,2.9-1.1l32.8-19c1-0.6,1.5-1.4,1.5-2.1c0-0.9-0.5-1.6-0.9-1.9L48.1-16.5c-0.5,0.3-0.8,0.4-1.2,0.4s-0.8-0.1-1.3-0.4
			l-35-20.2c-0.4,0.3-1,1-1,1.9c0,0.7,0.5,1.6,1.5,2.1l32.9,19C45.1-12.9,45.9-12.5,46.9-12.5z M46.9,6c1,0,1.8-0.4,2.9-1.1l32.8-19
			c1-0.6,1.5-1.4,1.5-2.1c0-0.9-0.5-1.6-0.9-1.9L48.1,2c-0.5,0.3-0.8,0.4-1.2,0.4S46.1,2.3,45.6,2l-35-20.2c-0.4,0.3-1,1-1,1.9
			c0,0.7,0.5,1.6,1.5,2.1L44,4.8C45.1,5.5,45.9,6,46.9,6z"/>
	</g>
	<g id="Ultralight-S" transform="matrix(1 0 0 1 513.471 696)">
		<path d="M46.2-33.1c0.8,0,1.5-0.3,2.5-0.9l31.6-18.2c1.5-0.8,2.3-1.6,2.3-2.9c0-1.3-0.8-2.1-2.3-2.9L48.7-76.2
			c-1-0.5-1.7-0.9-2.5-0.9s-1.5,0.4-2.5,0.9L12.2-58c-1.5,0.8-2.3,1.6-2.3,2.9c0,1.3,0.8,2.1,2.3,2.9L43.8-34
			C44.7-33.4,45.4-33.1,46.2-33.1z M46.2-13.7c0.8,0,1.5-0.3,2.4-0.9l32.8-18.9c0.9-0.5,1.2-1.1,1.2-1.7c0-0.6-0.2-1.1-0.4-1.2
			l-34.8,20C47-16.2,46.7-16,46.3-16c-0.4,0-0.7-0.1-1.1-0.4l-35-20c-0.2,0.1-0.4,0.6-0.4,1.2c0,0.6,0.3,1.2,1.2,1.7l32.8,18.9
			C44.8-14,45.4-13.7,46.2-13.7z M46.2,5.1c0.8,0,1.5-0.3,2.4-0.9l32.8-18.9c0.9-0.5,1.2-1.1,1.2-1.7c0-0.6-0.2-1-0.4-1.2l-34.8,20
			c-0.4,0.2-0.7,0.4-1.1,0.4c-0.4,0-0.7-0.1-1.1-0.4l-35-20.1C10-17.5,9.8-17,9.8-16.5c0,0.6,0.3,1.2,1.2,1.7l32.8,19
			C44.8,4.8,45.4,5.1,46.2,5.1z"/>
	</g>
</g>
</svg>
